<svg xmlns="http://www.w3.org/2000/svg" width="812.827" height="710.337" viewBox="0 0 812.827 710.337">
  <g id="Group_42" data-name="Group 42" transform="translate(-612 -238.781)">
    <g id="Group_3" data-name="Group 3" transform="translate(-6.469 -77.425)">
      <g id="_43" data-name="43" transform="translate(618.469 316.206)">
        <path id="Fill_225" data-name="Fill 225" d="M452.857,710.337h0a10.423,10.423,0,0,0-2.008-.159l-.42,0H450.4l-.465,0a6.186,6.186,0,0,1-2.488-.389,1.555,1.555,0,0,0-.581-.088,11.6,11.6,0,0,0-2.072.313c-.453.094-.921.191-1.334.25a2.839,2.839,0,0,1-.389.026,5.418,5.418,0,0,1-1.863-.429l-.1-.036a4.761,4.761,0,0,0-1.552-.4,1.442,1.442,0,0,0-.707.173,5.642,5.642,0,0,1-2.818.632c-.34,0-.683-.015-1.015-.03l-.144-.005c-.267-.01-.544-.021-.815-.021h-.092c-7.3.024-14.869.036-22.5.036-7.263,0-14.823-.011-22.471-.033h-.054c-.367,0-.751.031-1.122.062-.4.033-.8.066-1.194.066a3.221,3.221,0,0,1-2.411-.856,1.853,1.853,0,0,1-1.439.807,3.748,3.748,0,0,1-1.513-.475,3.922,3.922,0,0,0-1.587-.49,1.71,1.71,0,0,0-.27.021,5.507,5.507,0,0,1-.866.066,13.779,13.779,0,0,1-2.971-.452c-.321-.073-.629-.142-.937-.206a16.321,16.321,0,0,0-3.347-.288c-.758,0-1.539.029-2.294.056l-.067,0c-.81.031-1.6.059-2.376.059q-.327,0-.651-.007c-.192-.006-.382-.008-.572-.008-.168,0-.335,0-.5,0h-.182c-.24,0-.48.006-.72.006a8.528,8.528,0,0,1-3.872-.709,7.522,7.522,0,0,0-3.2-.436,13.243,13.243,0,0,1-2.625-.176c-.4-.08-.8-.166-1.2-.251l-.025-.005a30.354,30.354,0,0,0-6.309-.882h-.3c-.29,0-.578.007-.864.007a10.157,10.157,0,0,1-4.333-.738,2.8,2.8,0,0,0-1.174-.2c-.223,0-.458.011-.685.022s-.482.022-.715.022a2.676,2.676,0,0,1-2.108-.747c-.231.011-.457.015-.668.015a27.485,27.485,0,0,1-6.278-.959c-1-.234-2.033-.476-3.065-.655-7.3-1.269-15-3.036-23.552-5.4-2.481-.686-5.01-1.372-7.455-2.034l-.035-.009c-3.927-1.064-7.986-2.164-11.953-3.3-2.016-.572-4.1-1.237-6.2-1.975q-1.774-.626-3.557-1.244c-6.028-2.1-12.259-4.272-18-6.934-2.059-.955-4.172-1.9-6.216-2.815-4.027-1.8-8.186-3.663-12.143-5.687-1.785-.915-3.757-1.689-5.663-2.437-1.487-.584-3.023-1.187-4.476-1.857-8.7-4.015-16.212-7.767-22.959-11.471q-1.087-.6-2.178-1.191c-5.716-3.121-11.627-6.348-16.606-10.4a22.14,22.14,0,0,0-2.756-1.807c-.738-.434-1.5-.881-2.186-1.372s-1.337-1.057-1.963-1.6a17.678,17.678,0,0,0-3.226-2.388,29.808,29.808,0,0,1-3.774-2.507,33.763,33.763,0,0,0-3.116-2.133,4.825,4.825,0,0,1-1.58-1.7,4.06,4.06,0,0,0-3.02-2.2,3.426,3.426,0,0,1-2.153-1.676,4.093,4.093,0,0,0-2.562-1.941c-.468-1.4-1.744-2.173-3.1-2.995a8.78,8.78,0,0,1-2.868-2.342,17.414,17.414,0,0,0-4.526-3.961c-.755-.527-1.534-1.07-2.241-1.631s-1.477-1.134-2.211-1.678a37.149,37.149,0,0,1-4.687-3.887,64.194,64.194,0,0,0-6.267-5.475,69.485,69.485,0,0,1-5.746-4.95c-1.19-1.191-2.516-2.331-3.8-3.434-2.487-2.14-5.059-4.353-6.749-7.027a1.8,1.8,0,0,0-1.338-.757,2.089,2.089,0,0,1-1.026-.414,2.64,2.64,0,0,1-.65-1,2.242,2.242,0,0,0-.734-1.04,63.489,63.489,0,0,1-7.636-6.77l-.691-.683c-1.659-1.632-3.3-3.291-4.889-4.895-2.022-2.042-4.111-4.151-6.209-6.184A214.316,214.316,0,0,1,77.863,549.9c-2.543-3.071-5.018-6.246-7.412-9.316l-.023-.03q-1.052-1.35-2.107-2.7-1.226-1.564-2.456-3.125c-2.808-3.567-5.711-7.256-8.461-10.937-1.474-1.976-2.878-4.026-4.237-6.009-1.124-1.642-2.287-3.339-3.485-4.988-2.043-2.811-4.183-5.518-6.569-8.512-1.7-2.132-3.361-4.317-4.97-6.43-1.332-1.749-2.71-3.558-4.106-5.336a166.044,166.044,0,0,1-11.671-17.122L22.129,475a66.557,66.557,0,0,1-4.668-8.676,39.638,39.638,0,0,0-3.064-5.945,39.982,39.982,0,0,1-3.687-8.207c-.437-1.213-.888-2.466-1.391-3.687a13.449,13.449,0,0,1-.661-2.394,16.7,16.7,0,0,0-.438-1.768c-.276-.854-.482-1.719-.681-2.556-.1-.411-.194-.817-.3-1.224-.333-1.3-.565-2.626-.789-3.912a26.951,26.951,0,0,0-2.061-7.448,1.43,1.43,0,0,1-.161-.765,19.973,19.973,0,0,0-.525-6.608,21.6,21.6,0,0,1-.583-6.191,18.557,18.557,0,0,0-.534-5.386,16.556,16.556,0,0,1-.437-6.17c-1.076-1.354-1-2.845-.936-4.287a8.541,8.541,0,0,0-.164-2.751c-1.222-4.3-1.1-8.693-.977-12.943.052-1.843.106-3.743.05-5.608-.115-3.914-.09-7.9-.066-11.747.014-2.2.028-4.48.016-6.723a40.377,40.377,0,0,1,1.449-9.376c.268-1.135.545-2.308.779-3.469a5.352,5.352,0,0,1,.4-1.09,3.746,3.746,0,0,0,.473-1.87,5.369,5.369,0,0,1,2.051-4.647,2.058,2.058,0,0,1-.931-2.937,95.313,95.313,0,0,0,3.22-9.673c.747-2.547,1.518-5.175,2.459-7.727a49.093,49.093,0,0,0,2.541-9.444,16.583,16.583,0,0,1,1.251-3.814,18.066,18.066,0,0,0,1.22-3.593,25.322,25.322,0,0,1,1.507-4.607,34.134,34.134,0,0,0,1.256-3.513,17.535,17.535,0,0,1,1.571-3.5,19.74,19.74,0,0,0,1.517-3.279,88.242,88.242,0,0,1,4.1-10.137c.215-.469.415-.952.608-1.419a12.663,12.663,0,0,1,2.913-4.8,1.58,1.58,0,0,0,.465-.95,2.341,2.341,0,0,1,.145-.5q.228-.5.451-.992l.014-.03a38.6,38.6,0,0,1,2.546-4.969c1.2-1.88,2.312-3.836,3.388-5.727,1.247-2.192,2.535-4.457,3.967-6.618,1.289-1.947,2.493-3.956,3.657-5.9.586-.978,1.193-1.99,1.8-2.983,1.8-2.912,3.644-5.757,5.481-8.457A187.72,187.72,0,0,1,65.014,215a166.4,166.4,0,0,1,13.742-13.584q.922-.826,1.838-1.657a100.55,100.55,0,0,1,10.414-8.592c1.375-.943,2.707-1.963,3.995-2.949a58.507,58.507,0,0,1,6.56-4.562c2.34-1.327,4.662-2.748,6.909-4.122,1.191-.729,2.421-1.482,3.646-2.215,7.95-4.76,16.345-9.38,24.952-13.734,1.855-.939,3.756-1.884,5.594-2.8,3.15-1.566,6.389-3.176,9.508-4.809,2.951-1.546,6.052-2.974,9.052-4.355,2.909-1.339,5.917-2.724,8.784-4.215,2.242-1.164,4.705-2.218,7.088-3.237,1.249-.534,2.524-1.079,3.751-1.633,1.422-.639,2.91-1.222,4.349-1.786a65.892,65.892,0,0,0,6.252-2.7c2.528-1.31,5.277-2.4,7.935-3.453.871-.345,1.769-.7,2.653-1.063s1.757-.774,2.609-1.175a21.923,21.923,0,0,1,7.843-2.523c1.139-1.488,3.038-1.991,4.876-2.477a18.407,18.407,0,0,0,2.706-.865c.863-.384,1.764-.763,2.635-1.13,1.653-.695,3.343-1.406,4.888-2.193,2.374-1.209,4.781-2.367,7.454-3.646,2.541-1.216,5.04-2.548,7.456-3.835,2.346-1.25,4.766-2.54,7.213-3.719A33.379,33.379,0,0,0,254.5,109c1.052-.743,2.139-1.511,3.3-2.187a96.115,96.115,0,0,0,14.686-10.6,25.349,25.349,0,0,1,6.05-4.091,4.362,4.362,0,0,0,1.855-1.824A4.994,4.994,0,0,1,281.8,88.7a52.355,52.355,0,0,0,4.317-3.3c.754-.619,1.535-1.26,2.326-1.869.766-.591,1.384-1.15,1.194-2.008l.99-.086c.612-.053,1.139-.1,1.641-.14.183-.144.268-.262.256-.359-.014-.114-.156-.189-.306-.268-.2-.1-.4-.213-.37-.426.179-.167.353-.348.521-.523a4.806,4.806,0,0,1,2.452-1.615,1.957,1.957,0,0,0,1.335-1.229,2.623,2.623,0,0,1,.934-1.142,9.4,9.4,0,0,0,2.245-2.17,6.841,6.841,0,0,1,4.319-2.954,11.98,11.98,0,0,1,3.2-3.794,24.6,24.6,0,0,0,1.9-1.84,6.057,6.057,0,0,1,3.55-2.063c.6-.1.763-.56.922-1,.186-.516.379-1.05,1.255-1.05a2.65,2.65,0,0,1,.29.017c1.511-2.705,4.411-4.373,7.216-5.985,1.053-.605,2.142-1.231,3.129-1.9,1.35-.913,2.706-1.863,4.016-2.782a94.8,94.8,0,0,1,13.77-8.5,43.572,43.572,0,0,0,4.893-2.87,47.232,47.232,0,0,1,4.629-2.748c1.984-.983,3.971-2.007,5.893-3a153.767,153.767,0,0,1,16.865-7.834c1.635-.607,3.213-1.368,4.739-2.1a53.158,53.158,0,0,1,4.926-2.173l.327-.119c6.869-2.493,13.973-5.071,21.191-7.174.278-.081.555-.171.822-.257a8.771,8.771,0,0,1,2.743-.569,5.158,5.158,0,0,1,.7.048,2.565,2.565,0,0,0,.346.024,3.12,3.12,0,0,0,1.961-.879,4.471,4.471,0,0,1,1.6-.9,14.174,14.174,0,0,1,2.363-.349,10.8,10.8,0,0,0,3.325-.664,9.973,9.973,0,0,1,1.9-.48,11.332,11.332,0,0,0,2.174-.557,26.231,26.231,0,0,1,6.087-1.471,25,25,0,0,0,6.3-1.567A7.667,7.667,0,0,1,439.8,5.6l.425,0h.054l.463,0c.317,0,.568,0,.79-.016a42.175,42.175,0,0,0,6.752-1.077,36.455,36.455,0,0,1,7.674-1.091c.348,0,.7.01,1.034.029.364.021.734.032,1.1.032a21.109,21.109,0,0,0,7.06-1.278l.157-.055a5.454,5.454,0,0,1,1.686-.412,1.524,1.524,0,0,1,.492.075,6.9,6.9,0,0,0,2.25.347,18.472,18.472,0,0,0,2.575-.242c.689-.1,1.4-.2,2.09-.229a26.486,26.486,0,0,0,3.06-.377,23.077,23.077,0,0,1,3.716-.4c.189,0,.377,0,.559.013.54.026,1.1.064,1.634.1,1,.069,2.034.14,3.03.14a12.321,12.321,0,0,0,3.042-.323,28.256,28.256,0,0,1,7.027-.723c.85,0,1.711.017,2.544.033s1.713.034,2.569.034h.4c.507,0,1.035-.049,1.546-.094.544-.047,1.106-.1,1.657-.1a4.97,4.97,0,0,1,3.136.916.69.69,0,0,0,.417.146,1.814,1.814,0,0,0,.938-.446l.058-.041a2.042,2.042,0,0,1,1.135-.484A1.429,1.429,0,0,1,511.8.5a2.041,2.041,0,0,0,1.389.526,4.687,4.687,0,0,0,1.781-.451,1.173,1.173,0,0,1,.463-.089,3.4,3.4,0,0,1,1.151.3,3.46,3.46,0,0,0,1.172.307,1.15,1.15,0,0,0,.636-.181,5.616,5.616,0,0,1,2.541-.9A.673.673,0,0,1,521.5.2a1.106,1.106,0,0,0,.939.476,3.252,3.252,0,0,0,.749-.12,3.068,3.068,0,0,1,.706-.121.745.745,0,0,1,.682.373.574.574,0,0,0,.393.142l.036,0c.527-.05,1.082-.076,1.651-.076a38.341,38.341,0,0,1,5.405.51l.04.006a38.91,38.91,0,0,0,5.423.506c.346,0,.688-.009,1.017-.027.307-.017.625-.025.946-.025a28.9,28.9,0,0,1,7.245,1.075,49.264,49.264,0,0,0,6.575,1.09l.078.009.941.114a52.274,52.274,0,0,1,6.247,1.281,50.271,50.271,0,0,0,6.4,1.3,1.822,1.822,0,0,1,1.033.7,1.683,1.683,0,0,0,1.153.71,1.91,1.91,0,0,0,1.15-.528,2.209,2.209,0,0,0,1.9.724c.146,0,.294,0,.441-.008s.309-.008.456-.008a3.5,3.5,0,0,1,.921.1,5.262,5.262,0,0,1,1.7.975c.277.206.564.418.887.628.218-.016.438-.024.651-.024a18,18,0,0,1,5.52,1.192c.33.108.66.215.994.32a136.242,136.242,0,0,1,13.862,5.124q1.077.473,2.162.941c5.358,2.322,10.886,4.718,15.2,8.349a2.541,2.541,0,0,0,1.726.482,2.609,2.609,0,0,1,1.5.339c1.509,1.024,3.077,2.03,4.592,3,4.22,2.71,8.58,5.51,12.14,8.975a26.719,26.719,0,0,0,3.556,2.712,27.788,27.788,0,0,1,3.581,2.723c1.365,1.306,2.82,2.581,4.227,3.814a61.489,61.489,0,0,1,8.375,8.344c1.133,1.47,2.469,2.916,3.761,4.315,1.1,1.191,2.233,2.417,3.253,3.667,4.421,5.426,8.907,11.347,11.766,17.881q.538,1.227,1.083,2.452a129.515,129.515,0,0,1,4.859,12.028,11.949,11.949,0,0,1,.438,2.306,8.673,8.673,0,0,0,.612,2.674,9.24,9.24,0,0,1,.857,4.624,2.532,2.532,0,0,0,.593,1.51,2.327,2.327,0,0,1,.572,1.858c-.249,1.085-.531,2.315.787,3.434.421.357.325,1.111.233,1.841a7.33,7.33,0,0,0-.08.942c0,.406.025.822.049,1.225a9.189,9.189,0,0,1-.131,2.863,1.552,1.552,0,0,0,.418,1.208c.41.6.8,1.176-.261,1.8a2.388,2.388,0,0,1,.976,2.687,5.542,5.542,0,0,0-.042,1.1,22.076,22.076,0,0,1,.042,2.561c-.009.386-.017.759-.017,1.131v4.1c0,.382-.039.782-.077,1.168a5,5,0,0,0,.164,2.5,8.651,8.651,0,0,1,.54,3.593,10.969,10.969,0,0,0,.263,2.823,17.954,17.954,0,0,1,.209,5.924l0,.048c-.035.466-.069.931-.094,1.392a7.69,7.69,0,0,0,.591,2.878,6.849,6.849,0,0,1,.55,3.355c-.32,1.992-.718,4.47.091,6.521a9.117,9.117,0,0,1,.47,3.221,6.934,6.934,0,0,0,.634,3.375,6.489,6.489,0,0,1,.6,3.794,6.97,6.97,0,0,0,.255,2.913,36.889,36.889,0,0,1,1.7,7.372,38.912,38.912,0,0,0,1.5,6.771c.846,2.42,1.542,4.906,2.216,7.31A87.8,87.8,0,0,0,697.36,209.6c.767,1.842,1.586,3.708,2.377,5.513.814,1.857,1.651,3.766,2.433,5.648a55.347,55.347,0,0,0,5.518,9.406q.413.61.824,1.219a91.707,91.707,0,0,0,10.151,12.273c1.986,2.069,4.2,4.03,6.34,5.926,1.925,1.705,3.913,3.466,5.723,5.294.805.815,1.705,1.579,2.576,2.317a34.332,34.332,0,0,1,2.971,2.729,22.2,22.2,0,0,0,3.235,2.673,22.539,22.539,0,0,1,3.2,2.637,74.743,74.743,0,0,0,6.248,5.713,51.528,51.528,0,0,1,8.43,8.323c4.387,3.3,7.812,7.281,11.124,11.134,2,2.327,4.067,4.732,6.325,6.962a41.731,41.731,0,0,1,5.031,6.456c.762,1.124,1.548,2.283,2.382,3.387a180.638,180.638,0,0,1,10.139,15.532l.836,1.381a116.94,116.94,0,0,1,8.043,16.236c.687,1.663,1.342,3.362,1.975,5.005.884,2.293,1.8,4.664,2.81,6.967a5.076,5.076,0,0,1,.311,1.927,3.4,3.4,0,0,0,1.123,2.935,15.661,15.661,0,0,0,1.046,5.447,14.775,14.775,0,0,1,1.022,5.773c1.412,1.987,1.215,4.156,1.024,6.254-.024.265-.048.53-.069.793a4.615,4.615,0,0,0,.627,2.306,4.061,4.061,0,0,1,.568,2.7c-.406,1.748-.717,3.743.054,5.281a12.183,12.183,0,0,1,.891,6.261c-.026.675-.053,1.372-.039,2.062.139,6.581.135,13.072-.012,19.29a14.6,14.6,0,0,0,.114,1.837c.156,1.5.319,3.053-.7,4.52a3.929,3.929,0,0,0-.427,2.742,3.775,3.775,0,0,1-.639,3.069c-.288.337-.018.619.268.918s.608.636.453,1.089a5.261,5.261,0,0,0-.117,2.2,4.1,4.1,0,0,1-.7,3.3,2.753,2.753,0,0,0-.374,2.19,2.879,2.879,0,0,1-.75,2.778c-.433.393-.08.852.292,1.339.319.416.649.846.5,1.261-.1.285-.416.532-.963.755a10.547,10.547,0,0,1-.587,4.874c-.163.574-.331,1.168-.459,1.758a6.994,6.994,0,0,0-.034,2.044,4.588,4.588,0,0,1-.682,3.473,3.16,3.16,0,0,0-.388,2.318c.084,1.041.17,2.118-.954,2.98a7.837,7.837,0,0,1-.48,4.469,10.547,10.547,0,0,0-.656,3.4,18.1,18.1,0,0,1-1.207,5.9l-.069.216c-.975,3.062-1.865,6.213-2.644,9.366a26.293,26.293,0,0,1-1.149,3.339,1.955,1.955,0,0,1-.485.634,1.486,1.486,0,0,0-.586,1.077c.046,4.353-1.688,8.477-3.365,12.464-.3.715-.6,1.428-.89,2.14-.3.742-.585,1.5-.859,2.239a29.791,29.791,0,0,1-2.967,6.358,4.024,4.024,0,0,0-.438,1.159,3.4,3.4,0,0,1-.8,1.683,13.4,13.4,0,0,0-3.253,5.563c-.209.554-.446,1.182-.7,1.769a13.48,13.48,0,0,1-2.3,3.764,1.609,1.609,0,0,1-.341.253c-.179.112-.349.217-.351.332-.049,2.573-1.572,4.716-3.045,6.789a31.7,31.7,0,0,0-1.79,2.71c-.794,1.409-1.755,2.784-2.685,4.113a44.686,44.686,0,0,0-3,4.69,88.623,88.623,0,0,1-6.261,9.724c-1.794,2.537-3.647,5.158-5.216,7.843a29.3,29.3,0,0,1-2.815,3.809l-.015.018c-.374.452-.728.879-1.033,1.274a1.207,1.207,0,0,0,.339,1.482,1.11,1.11,0,0,1,.411,1.056c-.24.907-1.339,1.3-3.035,1.635.538,2.274-1,3.969-2.483,5.609-.468.517-.95,1.049-1.356,1.589-3.909,5.2-8.207,10.417-12.775,15.5q-.633.7-1.262,1.408a90.924,90.924,0,0,1-8.083,8.291c-10.562,9.177-21.858,18.325-34.531,27.966l-.95.724c-4.146,3.159-8.434,6.426-12.851,9.45l-.98.671c-3.661,2.506-7.446,5.1-11.333,7.432-9.729,5.835-19.783,11.865-30.257,17.214-7.746,3.96-15.889,7.606-23.764,11.133l-.756.339c-5.131,2.3-10.589,4.51-16.222,6.563-8.952,3.262-17.95,6.35-26.744,9.176-3.777,1.214-7.73,2.145-11.553,3.045a119.927,119.927,0,0,0-14.244,3.979,31.811,31.811,0,0,0-7.885,1.333,31.644,31.644,0,0,1-7.92,1.333q-.189,0-.38,0a13.948,13.948,0,0,1-5.615,1.237c-.784.063-1.593.128-2.358.244-.795.121-1.6.3-2.379.464a22.012,22.012,0,0,1-4.658.659,10.867,10.867,0,0,1-1.294-.076,2.192,2.192,0,0,0-.268-.016,4.854,4.854,0,0,0-1.627.393l-.069.025a5.483,5.483,0,0,1-1.864.42,3.151,3.151,0,0,1-.393-.024,11.5,11.5,0,0,0-1.478-.109,4.664,4.664,0,0,0-2.632.685,1.235,1.235,0,0,0-.884-.445,2.141,2.141,0,0,0-1,.366l-.042.024a2.333,2.333,0,0,1-1.138.392,1.379,1.379,0,0,1-.361-.049,9.3,9.3,0,0,0-2.415-.312,7.282,7.282,0,0,0-2.161.3,15.292,15.292,0,0,1-4.6.529l-.706,0-.734,0a14.279,14.279,0,0,0-3.833.385,14.72,14.72,0,0,1-4.043.448c-.349,0-.7,0-1.043-.009H480.8c-.313,0-.625-.007-.935-.007a14.1,14.1,0,0,0-3.364.315,10.251,10.251,0,0,1-2.467.279,26.142,26.142,0,0,1-3.223-.266,25.718,25.718,0,0,0-3.185-.265,10.4,10.4,0,0,0-1.68.127.281.281,0,0,1-.045,0c-.207,0-.471-.22-.727-.433a4.628,4.628,0,0,0-.385-.3c-.439.143-.494.429-.558.76a1.626,1.626,0,0,1-.29.747c-.349-.155-.7-.337-1.041-.512a9.037,9.037,0,0,0-2.484-.986,10.263,10.263,0,0,0-1.8-.134c-.471,0-.944.017-1.445.036-.535.019-1.078.039-1.64.039-.856.824-1.823,1.761-2.671,2.585Zm232.56-77.268a1.634,1.634,0,0,0-1.128.525,42.9,42.9,0,0,1-7.343,4.823c-3.466,1.936-6.8,4.081-10.026,6.155-2.442,1.57-4.962,3.191-7.518,4.708-1.085.646-2.167,1.334-3.213,2a65.244,65.244,0,0,1-6.271,3.67c-3.579,1.751-7.137,3.625-10.578,5.438-3.7,1.95-7.529,3.966-11.393,5.834-6.2,3-12.666,5.8-18.916,8.513-3.847,1.668-7.825,3.394-11.707,5.149a26.3,26.3,0,0,1-3.777,1.26,25.285,25.285,0,0,0-3.706,1.239,103.768,103.768,0,0,1-16,5.987c-1.843.5-3.642,1.144-5.381,1.764a58.9,58.9,0,0,1-7.064,2.183,31.361,31.361,0,0,0-8.208,2.76,3.012,3.012,0,0,0,1.469.387,4.153,4.153,0,0,0,1.422-.282c2.959-1.069,6.081-1.928,9.1-2.759,1.136-.313,2.3-.632,3.427-.956,7.977-2.291,15.606-5,22.016-7.345,13.229-4.835,25.043-9.732,36.117-14.971,6.068-2.868,10.62-5.142,14.76-7.374,2.651-1.428,5.273-2.965,7.808-4.453,2.394-1.4,4.855-2.848,7.335-4.2,2.949-1.6,5.75-3.426,8.46-5.187,1.814-1.179,3.687-2.4,5.587-3.538,1.642-.986,3.187-2.105,4.682-3.188a47.145,47.145,0,0,1,6.87-4.386,7.653,7.653,0,0,0,1.693-1.27c.17-.155.339-.307.51-.454.214-.183.454-.358.686-.528a4.207,4.207,0,0,0,1.3-1.251A2.52,2.52,0,0,0,685.416,633.069Zm-292.262,41.8h0a1.036,1.036,0,0,1,.789.9.849.849,0,0,0,.695.78c.973,0,2,.058,2.984.114,1.017.058,2.055.117,3.056.117a13.923,13.923,0,0,0,3.621-.4,21.978,21.978,0,0,1,5.807-.588l.775,0h.052l.747,0c.6,0,1.322,0,2.057-.038,1.125-.053,2.332-.078,3.8-.078.979,0,1.975.011,2.938.022h.059c.928.011,1.98.023,3,.023.238,0,.475,0,.713,0s.474,0,.71,0c.453,0,.819-.008,1.151-.024a1.582,1.582,0,0,0,.588-.2c.092-.046.18-.09.269-.126a4.64,4.64,0,0,1,.051-.507,1.649,1.649,0,0,0-.248-1.422,9.949,9.949,0,0,1-2.582.607c-.707,0-1.156-.318-2.14-1.015l-.311-.22c-.694-.488-.47-.87-.272-1.207.113-.193.22-.376.148-.559-.341-.9-1.243-.984-2.116-1.068a3.178,3.178,0,0,1-1.566-.407c-.409-.219-.328-.544-.241-.887.108-.433.221-.88-.735-1.1a2.978,2.978,0,0,0-.244,1.488c.005.952.011,1.936-1.647,2.407a7.714,7.714,0,0,0-2.277-.663c-.758,0-1.2.552-2.282,1.886-.042.493.4.531.877.57.524.044,1.065.089,1.045.732a2.689,2.689,0,0,0-.294-.015,6.016,6.016,0,0,0-.773.064,6.1,6.1,0,0,1-.746.065c-.529,0-1.1-.148-1.3-1.249-.081-.421-1.134-.722-1.981-.965-.316-.091-.586-.168-.762-.239-.044,0-.086,0-.127,0a1.459,1.459,0,0,0-.919.308l-.092.068a.889.889,0,0,1-.529.243.809.809,0,0,1-.359-.1,3.508,3.508,0,0,1-1.582-1.784,5.322,5.322,0,0,0-.563-.933,4.231,4.231,0,0,1,.86-.711c.432-.3.84-.578.935-1.01a1.871,1.871,0,0,0-.833-.219,2.112,2.112,0,0,0-1.14.428l-.029.018a2,2,0,0,1-1.058.408,1.323,1.323,0,0,1-.433-.076c-.3-.223-.633-.473-1.421-1.058l-.214-.159c.224.733.392,1.289.539,1.773l.277.912c-1.411.054-1.653.814-1.909,1.62a2.21,2.21,0,0,1-1.781,1.853c-.6.03-1.213.034-1.735.034l-.688,0h-.442a20.961,20.961,0,0,0-6.5.74c-.688.219-1.037.427-1.131.673-.1.269.1.577.476,1.018l.037,0,.353,0c.408,0,.816.01,1.21.02s.821.02,1.23.02a7.648,7.648,0,0,0,4.152-.895Zm280.909-98.107a22.659,22.659,0,0,0-7.334,4.067,31.51,31.51,0,0,1-4.527,2.951,126.4,126.4,0,0,0-12.152,7.263c-2.836,1.846-5.615,3.8-8.3,5.683l-.022.016c-1.144.8-2.327,1.633-3.495,2.441a3.907,3.907,0,0,0,1.391.3,1.925,1.925,0,0,0,1.257-.412,13.85,13.85,0,0,1,4.339-2.053c2.031-.693,4.13-1.409,5.335-3.124a7.078,7.078,0,0,0,4.572-2.019,15.9,15.9,0,0,1,1.531-1.12,8.4,8.4,0,0,1,4.12-1.328c.086,0,.171,0,.254.007a8.72,8.72,0,0,1,4.394-3.375,6.785,6.785,0,0,0,1.846-1.155,5.962,5.962,0,0,1,2.693-1.422c-.625-1.049-.878-1.624-.636-2.04.3-.522,1.4-.809,3.655-1.3a.933.933,0,0,0-.369-.454,1,1,0,0,1-.446-1.208l.738-.669.04-.036c.345-.314.732-.665,1.121-1.015h0Zm-40.474-12.475a14.166,14.166,0,0,0-5.316,2.955,26.215,26.215,0,0,1-2.217,1.6c-1,.62-2.026,1.223-3.018,1.806-1.861,1.093-3.782,2.222-5.552,3.472-3.117,2.2-5.663,3.935-8.014,5.451-1.082.7-2.227,1.361-3.333,2a46.032,46.032,0,0,0-5.941,3.869c-.286.232-.563.5-.832.754a5.44,5.44,0,0,1-2.125,1.476,8.142,8.142,0,0,0-2.969,1.684c-.192.151-.378.3-.568.439-.815.6-1.6,1.234-2.353,1.844l-.03.024c-.306.247-.608.49-.907.728a2.053,2.053,0,0,0,1.216.4,4.616,4.616,0,0,0,1.534-.364l.04-.015a4.3,4.3,0,0,1,1.419-.347,1.749,1.749,0,0,1,1.391.718,17.574,17.574,0,0,1,5.011-2.5c.657-.245,1.336-.5,1.989-.776,1.557-.66,3.066-1.442,4.525-2.2,1.2-.622,2.441-1.265,3.7-1.838a1.865,1.865,0,0,0,.812-.89c.28-.491.544-.955,1.339-.955a2.6,2.6,0,0,1,.419.037c2.756-3.96,7.321-6.542,11.737-9.038l1.152.621.2.106.258.14.151-.114,1.327-1c-.164-.142-.322-.281-.476-.418-.177-.156-.343-.3-.508-.446a1.086,1.086,0,0,1,.978-.406c.141,0,.29.01.434.019.166.011.321.022.469.022a1.084,1.084,0,0,0,1.093-.564l-.369-.112-.034-.01c-.479-.145-.941-.286-1.409-.424.17-2.512.17-2.512,3.056-3.008.476-.08.915-.226.906-.759.094-.466-.258-.713-.6-.953a2.43,2.43,0,0,1-.419-.342,2.963,2.963,0,0,1,1.008-.826C633.509,565.689,634.276,565.218,633.589,564.287Zm-1.863-7.627v0a1.49,1.49,0,0,0-.719.21.915.915,0,0,1-.093.067c-.092.061-.2.13-.2.2-.02.863-.019,1.736-.017,2.66v.747c-7.815,3.028-25.1,13.706-27.493,19.447a18.272,18.272,0,0,1,1.688-.705c1.524-.577,2.96-1.12,3.493-2.722.151-.449.687-.794,1.256-1.159a4.921,4.921,0,0,0,1.158-.908,2.076,2.076,0,0,1,1.813-.584,2.35,2.35,0,0,0,1.8-.508,8.393,8.393,0,0,1,1.743-1.209,5.316,5.316,0,0,0,2.008-1.594,4.2,4.2,0,0,1,2.307-1.631,5.2,5.2,0,0,0,1.795-1.018c.121-.121.243-.245.366-.371l.016-.017a8.435,8.435,0,0,1,3.278-2.414,3.664,3.664,0,0,0,1.655-1.2,2.6,2.6,0,0,1,2.01-1.129c.051,0,.1,0,.157,0s.093,0,.138,0a1.784,1.784,0,0,0,1.588-1.024l.026-.039c.344-.506.668-.983,1.455-.983a2.251,2.251,0,0,1,.3.022,13.231,13.231,0,0,1,2.912-1.842,11.635,11.635,0,0,0,3.249-2.17c.559-.6.889-1.086.033-1.772a10.036,10.036,0,0,0-4.212,1.769c-.453.282-.882.548-1.323.782a2.677,2.677,0,0,1-1.168-.5,1.924,1.924,0,0,0-1.028-.412ZM456.843,493.411c-.181.028-.348.045-.5.061-.677.071-1.123.117-1.446.907-.846,2.065-1.783,4.145-2.69,6.156-1.047,2.321-2.126,4.714-3.071,7.1-.16.4-.36.806-.554,1.2a5.484,5.484,0,0,0-.859,3.669c-1.929,2.546-2.634,5.454-3.316,8.266-.184.757-.373,1.539-.584,2.3-.707,2.543-1.59,5.1-2.443,7.575l-.008.024c-.36,1.043-.731,2.121-1.082,3.176-.764,2.293-1.5,4.634-2.207,6.9a167.114,167.114,0,0,1-5.869,16.639,3.506,3.506,0,0,1-.432,2.407c-.463,1.067-.94,2.169.09,3.407a10.524,10.524,0,0,1,1.863-4.674,15.25,15.25,0,0,0,1.592-3.21c.587-1.911,1.3-3.828,1.993-5.681.517-1.387,1.051-2.815,1.528-4.234.267-.8.552-1.6.828-2.377l.007-.02a57.926,57.926,0,0,0,1.92-6.122,35.226,35.226,0,0,1,1.733-5.025c.5-1.234,1.006-2.5,1.4-3.778.214-.7.42-1.4.626-2.1a57.355,57.355,0,0,1,2.434-7.118c.148-.334.3-.666.451-1l.015-.033a25.233,25.233,0,0,0,1.573-4.039l.005-.02a22.408,22.408,0,0,1,2.1-5.831,6.091,6.091,0,0,0,.64-2.165c.212-1.292.432-2.627,2.119-3.519.613-.321.375-1.172.1-1.877a2.451,2.451,0,0,0-.444-.59c-.133-.146-.214-.236-.19-.254a4.965,4.965,0,0,0,1.789-3.47A7.5,7.5,0,0,1,456.843,493.411ZM69.058,482.116h0a124.236,124.236,0,0,0,10.736,15.955c4.013,5.268,7.709,9.948,11.3,14.307,1.371,1.668,2.567,3.437,3.724,5.148l.05.073c.321.474.641.948.966,1.42a1.8,1.8,0,0,0,.641.473c.086.046.16.085.216.122.422-.269.8-.509,1.2-.764l.638-.4c-.186-.292-.35-.6-.509-.89a5.076,5.076,0,0,0-1.344-1.808,1.977,1.977,0,0,0-.543-.248,1.33,1.33,0,0,1-1.005-.863,87.488,87.488,0,0,0-4.168-10.5c-.256-.516-.463-1.059-.664-1.586a8.473,8.473,0,0,0-2.181-3.633c-3.6-3.194-7.182-6.5-10.645-9.694l-.016-.015q-1.427-1.317-2.855-2.632a3.211,3.211,0,0,0-.412-.3c-.358-.237-.728-.48-.725-.965,0-.695-.61-1.069-1.2-1.431a6.229,6.229,0,0,1-.617-.41,4.991,4.991,0,0,1-.368-.338,2.933,2.933,0,0,0-2.219-1.01ZM573.22,409.66c-8.668,11.542-16.6,23.559-24.261,35.18l-.031.047c-2.319,3.515-4.717,7.151-7.1,10.715a1.525,1.525,0,0,0-.084,1.036,3.951,3.951,0,0,1,.047.511,132.242,132.242,0,0,0,15.5-19.922c3.2-4.824,6.345-9.766,9.389-14.546,2.184-3.431,4.443-6.979,6.705-10.457a1.807,1.807,0,0,0-.169-2.564ZM760.547,314.7a1.348,1.348,0,0,0-.647.206,6.348,6.348,0,0,1,.164.7,4.552,4.552,0,0,0,.61,1.717,60.52,60.52,0,0,1,3.746,7.4c.57,1.27,1.16,2.582,1.789,3.856a100.158,100.158,0,0,1,4.979,12.253c.5,1.46,1.06,2.952,1.6,4.394l.012.033c.275.73.549,1.455.813,2.172.252.682.457,1.37.675,2.1a16.819,16.819,0,0,0,3.163,6.576,25.319,25.319,0,0,0-.819-6.714,57.016,57.016,0,0,0-1.784-5.75c-.487-1.392-.989-2.831-1.4-4.263a59.63,59.63,0,0,0-4.506-10.453c-.693-1.363-1.41-2.772-2.067-4.171-.106-.224-.211-.451-.317-.681l-.031-.068a19.422,19.422,0,0,0-2.324-4.1,20.847,20.847,0,0,1-3.006-4.729A.7.7,0,0,0,760.547,314.7ZM165.124,243c-.543.431-1.09.846-1.619,1.248a35.806,35.806,0,0,0-3.331,2.739,17.224,17.224,0,0,1-2.542,1.908,19.959,19.959,0,0,0-2.305,1.683,33.041,33.041,0,0,0-2.345,2.38,24.619,24.619,0,0,1-3.326,3.183,93.5,93.5,0,0,0-10.085,9.191l-.015.015q-.815.82-1.633,1.638a132.733,132.733,0,0,0-12.491,15.125c-.891,1.2-1.806,2.426-2.718,3.629a30.961,30.961,0,0,0-2.023,3.173c-.278.478-.564.971-.859,1.45,6.2-6.063,12.131-12.429,17.869-18.585,8.7-9.338,17.7-18.992,27.765-27.733.072-.064,0-.234-.118-.491C165.281,243.4,165.2,243.215,165.124,243Zm257.543,1v0a4.515,4.515,0,0,0-3.168,1.471c-2.411,2.327-4.666,4.816-6.848,7.224l-.131.144-.97,1.069c-.711.783-1.386,1.608-2.038,2.406a39.813,39.813,0,0,1-3.225,3.631,91.947,91.947,0,0,0-8.422,9.673q-.864,1.092-1.73,2.177l-2.12,2.646-.081.1c-3.111,3.884-6.321,7.891-9.54,11.8a1.353,1.353,0,1,0,1.447.983,2.649,2.649,0,0,1,.9-1.229,16.806,16.806,0,0,0,3.2-2.986c2.9-3.3,6.14-6.5,9.274-9.6q1.272-1.256,2.537-2.514,1.029-1.026,2.072-2.049c2.195-2.161,4.462-4.4,6.469-6.662,1.1-1.247,2.315-2.46,3.487-3.633a59.309,59.309,0,0,0,4.713-5.1,26.759,26.759,0,0,1,2.889-2.962c1.782-1.65,3.625-3.355,4.359-5.616a6.413,6.413,0,0,0-3.083-.978ZM36.8,273.649c.2,0,.4.139.622.425-.324.622-.633,1.278-.933,1.913a24.6,24.6,0,0,1-2.576,4.575c-1.025,1.342-.812,2.337-.379,3.849a13.274,13.274,0,0,0,.839-1.36c.665-1.186,1.24-2.209,2.864-2.627-.069-.055-.139-.109-.208-.162-.665-.512-1.238-.953-.319-1.842a3.666,3.666,0,0,1,2.682-.844c.17-.007.341-.014.514-.025a.406.406,0,0,0,.364-.193.3.3,0,0,0-.113-.36l-1.027-.29-.071-.02-.982-.276c.636-.953,1.214-1.932,1.773-2.878a29.02,29.02,0,0,1,4.124-5.82l1.087.863c.553-.461.98-.815,1.4-1.165l.117-.1a3.383,3.383,0,0,1-1.279-1.586,4.828,4.828,0,0,0-.591-.981c.249-.611.814-.695,1.388-.695.172,0,.352.009.526.017.194.009.372.018.545.018.63,0,1.239-.107,1.424-.881-.184-.32-.579-.351-.962-.382-.466-.037-.906-.073-1.023-.57a3,3,0,0,1,.86-2.417,6.442,6.442,0,0,0,.7-1.105,2.048,2.048,0,0,1,.437-.041c.157,0,.317.012.471.023l.026,0c.166.014.338.028.509.028a1.456,1.456,0,0,0,1.032-.349c-.847-.87-1.533-1.743-.626-2.8a15.309,15.309,0,0,0,1.66-2.506,9.674,9.674,0,0,1,3.455-4,1.918,1.918,0,0,0,.789-1.1,1.69,1.69,0,0,1,1.019-1.186c-.551-1.509.408-2.624,1.335-3.7.262-.3.532-.619.761-.935q.841-1.159,1.677-2.32c2.752-3.815,5.6-7.76,8.684-11.489,4.831-5.847,9.825-11.892,15.41-17.462,1-1,1.987-2.033,2.941-3.033a62.746,62.746,0,0,1,8.985-8.252c.406-.288.614-.59.6-.872a.8.8,0,0,0-.454-.619C80.7,209.24,67.59,223.637,54.393,244.8c-.07-.058-.137-.117-.2-.175a2.133,2.133,0,0,0-1.4-.712,1.851,1.851,0,0,0-.609.112c-.245.405-.478.829-.7,1.24a15.716,15.716,0,0,1-1.82,2.815c-1.356,1.562-1.305,2.874.156,4.012-.7,1.056-1.332,2-1.918,2.882l-.816,1.225c-.281.023-.587.023-.882.024-.591,0-1.1,0-1.227.179-.269.38-.579.759-.879,1.125-1.2,1.463-2.434,2.972-1.468,4.99-.085-.005-.166-.006-.227-.006a2.08,2.08,0,0,0-2.062,1.293,2.392,2.392,0,0,1-.837.97c.373.612-.035,1.123-.467,1.665-.535.671-1.089,1.364-.1,2.289a1.462,1.462,0,0,1,.574,1.534,2.671,2.671,0,0,1-1.949,1.383c-.159-.128-.317-.253-.5-.4l-.339-.268c.083.565-.356.977-.781,1.375-.517.484-1,.942-.59,1.643a.613.613,0,0,0,.391.165.961.961,0,0,0,.54-.256A.952.952,0,0,1,36.8,273.649Zm119.329-81.362a2.8,2.8,0,0,0-2,.976,3.727,3.727,0,0,1-.9.68,89.121,89.121,0,0,0-14.245,8.306,186.614,186.614,0,0,0-23.305,20.213c-.78.785-1.635,1.534-2.461,2.259a37.349,37.349,0,0,0-3.049,2.881c-5.251,5.8-10.62,11.944-16.415,18.78a12.014,12.014,0,0,0-2.833,5.013,18.2,18.2,0,0,0,5.871-4.442,29.245,29.245,0,0,1,2.4-2.265,51.417,51.417,0,0,0,4.829-4.68c.458-.485.916-.969,1.377-1.445,1.082-1.117,2.307-2.151,3.491-3.151a46.255,46.255,0,0,0,3.481-3.147l.356-.372a93.322,93.322,0,0,1,9.556-9.056c.291-.229.622-.452.941-.668a5.642,5.642,0,0,0,1.876-1.686,12.258,12.258,0,0,1,4.073-3.944,26.152,26.152,0,0,0,2.273-1.74,29.27,29.27,0,0,0,2.188-2.247,18.525,18.525,0,0,1,3.94-3.568,3.612,3.612,0,0,1,.787-.335,2.758,2.758,0,0,0,1.421-.865,32.042,32.042,0,0,1,4.856-4.407,29.077,29.077,0,0,0,5.32-4.978,3.226,3.226,0,0,0,2.413-1.645,4.636,4.636,0,0,1,1.153-1.223,29.723,29.723,0,0,0,2.627-2.019c.394-.327.8-.66,1.216-.993a3.785,3.785,0,0,0-1.232-.234ZM512.8,210.008a3.206,3.206,0,0,1,1.369.362,3.2,3.2,0,0,0,1.355.366,2.853,2.853,0,0,0,.762-.111,10.587,10.587,0,0,0,2.595-1.194,15.182,15.182,0,0,1,1.466-.781,4.338,4.338,0,0,0,2.755-3.875c.047-.819.594-.942,1.174-1.073a2.159,2.159,0,0,0,.955-.379c.129-2.677-.047-5.265-3.6-7.479a36.5,36.5,0,0,1-3.7,4.986c-2.267,2.72-4.61,5.533-5.236,9.18.017,0,.034,0,.052,0h.045ZM274.385,103.189a4.838,4.838,0,0,0-2.441.872v2.806a3.216,3.216,0,0,0-2.866,1.989,4.46,4.46,0,0,1-2.43,2.233,13.754,13.754,0,0,0-4.277,2.834c-.57.489-1.159,1-1.764,1.443.23.424.716.5,1.186.578.547.088,1.113.179,1.31.8.394-.276.766-.589,1.126-.89a5.666,5.666,0,0,1,3.8-1.79,5.25,5.25,0,0,1,.8.065v-1.939A8.615,8.615,0,0,0,272.678,110c.255-.214.517-.434.781-.642a6.939,6.939,0,0,1,1.592-.838c1.127-.477,2.292-.971,2.374-2.3.087.006.177.011.279.011a2.665,2.665,0,0,0,2.311-1.4,3.5,3.5,0,0,1,1.57-1.356,9.836,9.836,0,0,0,3.03-2.083c.356-.316.719-.639,1.088-.932a19.8,19.8,0,0,0,1.914-1.811,17.763,17.763,0,0,1,1.9-1.782,16.439,16.439,0,0,0,1.465-1.333,10.893,10.893,0,0,1,2.352-1.917c.412-.228.864-.437,1.3-.64,1.277-.592,2.592-1.2,3.131-2.356.75-1.591,2.194-2.364,4.279-3.094a1.918,1.918,0,0,1,.193-1.871c.625-.762,2.049-.967,3.426-1.165.2-.028.395-.057.59-.087l-1.034-.821c.036-.547.465-.553.919-.559.357,0,.726-.01.9-.3.124-.209.246-.422.369-.635.916-1.591,1.863-3.236,3.7-4.129A12.826,12.826,0,0,0,314.6,75.2a20.462,20.462,0,0,1,1.793-1.666c7.8-6.166,14.952-11.546,21.864-16.449a4.591,4.591,0,0,0,.5-.441,2.065,2.065,0,0,1,.983-.652,11.538,11.538,0,0,0,5.424-2.82,23.1,23.1,0,0,1,2.141-1.559c1.083-.671,2.113-1.435,3.108-2.173a30.382,30.382,0,0,1,4.556-2.974c4.389-2.16,8.283-4.167,11.486-6.851a1.373,1.373,0,0,1,.672.46c.114.125.2.223.325.223a.283.283,0,0,0,.107-.023c.627-.46,1.212-.979,1.778-1.48a8.413,8.413,0,0,1,3.761-2.362,7.832,7.832,0,0,0,3.652-1.808,14,14,0,0,1,2.294-1.5c-4.909.405-4.909.405-7.524,2.433a1.983,1.983,0,0,0-1.046-.281,5.394,5.394,0,0,0-1.412.262,5.892,5.892,0,0,1-1.524.273,2.526,2.526,0,0,1-1.24-.313c-.08.269-.136.56-.19.841-.228,1.179-.463,2.4-2.482,2.4-.176,0-.366-.009-.565-.028q-.092-.009-.178-.009a1.217,1.217,0,0,0-1.082.535c-1,1.752-2.945,2.661-4.826,3.54a24.585,24.585,0,0,0-2.455,1.261c-.164.1-.328.2-.494.307-1.55.969-3.153,1.97-5.091,1.97a5.648,5.648,0,0,1-1.16-.122,8.823,8.823,0,0,1-4.732,4.163l-.46-.338-.9-.669c-.467.819-.932,1.632-1.4,2.458l-.4.691a12.316,12.316,0,0,0-4.715,1.376l-.148.066v1.628a5.812,5.812,0,0,0-3.337,1.822l-.254.229a4.241,4.241,0,0,1-1.2.666,2.739,2.739,0,0,0-1.825,1.561c-.242.713-1.146,1.3-2.021,1.863-.388.251-.789.51-1.126.776a5.013,5.013,0,0,1-.831.056c-.158,0-.313,0-.469-.007s-.334-.008-.5-.008a4.233,4.233,0,0,0-2.048.43c.966.3,1.559.485,2.85.883a3.359,3.359,0,0,0-3.067,1.662,4.173,4.173,0,0,1-.952,1.026c-1.446,1.011-2.814,2.129-4.137,3.21-.569.465-1.155.943-1.74,1.408a.757.757,0,0,1,.084.746c-.156.254-.564.345-1,.441-.625.139-1.27.283-1.226.938a.673.673,0,0,1-.189.6.95.95,0,0,1-.625.16c-.176,0-.362-.017-.559-.034s-.4-.033-.58-.033c-.371,0-.815.06-.951.527l.279.277.027.027c-1.652,1.31-3.215,2.554-4.753,3.778l-.107.085-2.147,1.709a.325.325,0,0,1-.227.124c-.131,0-.242-.131-.359-.269l-.024-.028a.656.656,0,0,0-.457-.3.637.637,0,0,0-.42.215.715.715,0,0,0-.338.538c.006.3.348.559.679.809s.685.518.669.823c-.011.206-.184.413-.529.633a.624.624,0,0,1-.142.017.755.755,0,0,1-.521-.282.754.754,0,0,0-.524-.281.875.875,0,0,0-.4.117,1.224,1.224,0,0,0-.148.923,1.112,1.112,0,0,1-.54,1.3c-.449-.45-.95-.959-1.392-.959a.558.558,0,0,0-.161.023c-1.032.353-1.013.761-1,1.121l0,.1c.033,1.554-.271,3.238-2.776,3.944-.02,1.047-.932,1.4-1.813,1.744a4.074,4.074,0,0,0-1.452.794,11.391,11.391,0,0,1-1.624,1.291,8.366,8.366,0,0,0-1.934,1.662,30.412,30.412,0,0,1-6.287,5.737,52.043,52.043,0,0,0-4.478,3.668,3.973,3.973,0,0,0-2.043-.644Z" transform="translate(0 0)" fill="#ffde27"/>
      </g>
    </g>
    <text id="BookedUp" transform="translate(626 327)" fill="#2d2140" font-size="100" font-family="GochiHand-Regular, Gochi Hand"><tspan x="0" y="0">BookedUp</tspan></text>
  </g>
</svg>
