<svg id="_96" data-name="96" xmlns="http://www.w3.org/2000/svg" width="553" height="622" viewBox="0 0 553 622">
  <path id="Fill_1" data-name="Fill 1" d="M330.478,622a169.427,169.427,0,0,1-39.5-4.88c-13.537-3.259-27.52-4.816-41.042-6.321l-.026,0c-3.646-.406-7.415-.826-11.118-1.273-38.936-4.689-70.488-11.026-99.3-19.944-.723-.223-1.49-.424-2.232-.618a19.085,19.085,0,0,1-5.361-1.968,53.218,53.218,0,0,0-6.522-3.392,37.516,37.516,0,0,1-9.309-5.47,15.73,15.73,0,0,0-3.984-2.3,15.148,15.148,0,0,1-4.868-3.035c-5.493-5.641-12.112-9.614-18.513-13.457-1.948-1.169-3.961-2.378-5.916-3.617-12.813-8.118-26.061-16.512-35.482-29.591-20.53-28.5-32.914-52.3-40.153-77.162A174.963,174.963,0,0,1,.04,404.052a162.505,162.505,0,0,1,5.478-45.433c.582-2.185,1.148-4.405,1.7-6.552,2.737-10.727,5.567-21.82,11.113-31.625a160.118,160.118,0,0,1,11.682-17.168c1.6-2.138,3.137-4.389,4.62-6.566,3.108-4.56,6.321-9.275,10.339-13.212,8.277-8.107,16.444-15.978,25.347-23.153,9.557-7.7,12.755-19.515,14.789-31.136.926-5.294,1.679-10.713,2.406-15.955,1.336-9.623,2.717-19.574,5.23-29.137a187.571,187.571,0,0,1,24.221-55.443,175.492,175.492,0,0,1,40.066-42.88c11.615-8.922,23.934-16.985,35.846-24.783,4.636-3.035,9.427-6.171,14.115-9.317,7.509-5.04,15.322-9.85,22.877-14.5,8.237-5.071,16.755-10.314,24.894-15.867C275.789,6.975,299.426,0,327.023,0A225.854,225.854,0,0,1,366.8,3.931c18.055,3.225,35.17,10.535,49.794,17.133,2.719,1.227,5.491,2.454,8.172,3.642l.059.026c14.707,6.512,29.914,13.246,43.583,23.033a194.366,194.366,0,0,1,38.583,36.07,173.811,173.811,0,0,1,26.942,47.305c6.406,16.9,13.031,34.378,16.242,52.956,3.349,19.376,3.72,37.3,1.134,54.789-1.693,11.457-4.144,22.921-6.514,34.008-2.234,10.446-4.542,21.243-6.212,32.013a80.926,80.926,0,0,0-.889,12.856c.02,4.223-.16,8.515-.334,12.666a161.064,161.064,0,0,0,.057,21.434c.619,6.712,1.416,13.508,2.187,20.079.807,6.882,1.641,13.993,2.271,21.007a331.134,331.134,0,0,1-.69,63.017,391.876,391.876,0,0,1-10.391,58.263,154.747,154.747,0,0,1-12.193,32.7c-.623,1.2-1.17,2.539-1.7,3.832-1.635,3.992-3.325,8.119-7.618,9.871-7.929,14.625-20.765,22.747-33.179,30.6l-.023.015c-2.689,1.7-5.47,3.461-8.156,5.259a103.6,103.6,0,0,1-13.67,7.3c-2.383,1.122-4.845,2.281-7.218,3.521-3.836,2-7.836,2.575-11.7,3.129-1.833.262-3.721.533-5.559.951-13.41,3.059-27.282,4.206-40.7,5.316l-.034,0q-3.331.276-6.659.559c-20.168,1.747-40.323,2.335-62.688,2.874,2.641.033,5.522.054,8.564.054a813.193,813.193,0,0,0,85.706-4.789q.021.267.04.533l0,.033q.019.255.039.51-2.984.316-5.969.62l-.216.022c-4.311.443-8.769.9-13.154,1.412-19.144,2.219-38.687,2.779-57.586,3.321l-2.279.065C333.4,621.979,331.929,622,330.478,622Zm-5.871-5.522v.225H336.8v-.225Zm122.369-36.557L439.2,582.1l-7.3,2.045C438.141,583.988,442.931,582.649,446.975,579.921Zm-281.3-184.292c-18.037,9.227-43.741,29.28-46.616,36.367,3.337-2.414,6.766-4.821,10.083-7.149C141.417,416.232,154.1,407.329,165.675,395.629Zm10.043,19.183q-9.694,6.635-19.4,13.27l.16.288c.135.245.271.49.409.733,6.364-2.24,11.62-6.716,16.7-11.045.876-.746,1.779-1.515,2.673-2.26-.113-.206-.227-.41-.34-.613Zm-17.675-18.371a52.539,52.539,0,0,0-12.112,8.87,47.474,47.474,0,0,0,12.112-8.87Zm21.308-39.387-.127.106c-12.034,10.023-24.478,20.388-35.33,32.52,10.456-6.607,19.759-15.2,28.756-23.513,2.606-2.407,5.3-4.9,7.991-7.308C180.207,358.25,179.779,357.65,179.351,357.054Zm-7.906-4.506c-9.094,7.123-18.65,14.893-26.747,24.639,1.535-1.3,3.106-2.606,4.624-3.872C156.93,366.975,164.8,360.419,171.445,352.548Zm-9.488-4.877h0c-6.016,5.137-11.8,10.28-16.466,16.711q4.265-3.869,8.533-7.736l.072-.066.288-.261q4.168-3.778,8.334-7.556-.241-.349-.483-.695l-.277-.4Zm-119.951-18.8a55.281,55.281,0,0,0-8.742,21.438l.145-.355q4.3-10.543,8.6-21.083Zm11.312,1.277c-3.826,4.137-7.238,11.259-7.3,15.241,1.172-2.446,2.292-4.784,3.383-7.063l.028-.058.143-.3C50.844,335.314,52.08,332.732,53.318,330.152Zm37.54-28.838h0c-5.265,5.74-9.449,12.093-13.495,18.237-2.21,3.356-4.493,6.823-6.886,10.076,3.173-.922,8.253-6.739,11.949-11.879,4.637-6.449,7.947-12.9,8.432-16.435Zm-47.007,2.72c-3.237,2.048-5.809,5.11-8.095,9.635-.056.11-.121.22-.187.331-.3.5-.607,1.021-.012,1.573a.908.908,0,0,0,.609.287c.34,0,.675-.273,1.023-.835,1.722-2.8,3.443-5.654,5.108-8.416q.777-1.288,1.554-2.575h0Zm74.16-15.426-5.947,9.32-6.072,9.516C111.185,302.658,115.118,296.5,118.011,288.609Zm257.858,7.829c-4.4.883-7.848,3.752-11.183,6.528-.578.481-1.175.978-1.771,1.46A29.06,29.06,0,0,0,375.869,296.438ZM304.34,278.371c-8.977,2.656-30.085,17.311-34.22,23.76,8.377-5.819,16.454-11.426,24.727-17.17l.15-.1Zm67.029-7.668-22.19,15.249C353.878,285.328,368.325,275.028,371.368,270.7ZM361.336,256.57q-12,8.113-24.007,16.226l.179.321.019.034c.112.2.224.4.335.6a104.263,104.263,0,0,0,23.473-17.184h0Zm-36.708-31.81a33.285,33.285,0,0,0-10.59,6.627A32.019,32.019,0,0,0,324.628,224.76ZM197.609,156.185c-12.331,10.22-22.824,22.874-32.08,38.685,4.473-5.963,9.485-11.543,14.333-16.94C185.99,171.109,192.325,164.057,197.609,156.185Zm340.121,27.051h0a11.846,11.846,0,0,1-.192,3.012c-.308,2.092-.627,4.255,1.212,6.319,1.357-3.556.156-6.48-1.005-9.307ZM376.459,153.579l-16.019,7.372.395,1.064a40.173,40.173,0,0,1,7-2.9c3.106-1.063,6.317-2.162,9.089-4.282l-.237-.636ZM202.785,117.831c-1.223,1.042-2.468,2.078-3.672,3.079-7.645,6.362-15.55,12.94-20.228,22.935,4.756-5.329,9.687-10.642,14.454-15.78C196.452,124.711,199.658,121.257,202.785,117.831Zm-27.81-1.975h0c-4.566,2.653-7.187,7.086-9.9,12.181q.561-.582,1.124-1.159c3.211-3.3,6.531-6.717,8.78-11.023Zm92.5-19.4c-9.868,3.689-27.991,16.792-30.3,21.907,1.657-1.191,3.3-2.344,4.882-3.459l.024-.017c3.6-2.533,7-4.925,10.309-7.538,2.861-2.259,5.867-4.359,8.774-6.389C263.249,99.5,265.4,98,267.475,96.452ZM478.7,76.471l0,0c6.17,7.931,13.738,17.038,23.086,24.412C496.2,92.291,488.867,84.53,478.7,76.471ZM302.143,8.082c-13.8.866-30.306,6.953-36.787,13.569a134.087,134.087,0,0,1,18.212-7.987c4.249-1.469,8.634-2.722,12.875-3.933,1.869-.534,3.8-1.085,5.7-1.649h0Z" fill="#ffe764"/>
</svg>
