<svg xmlns="http://www.w3.org/2000/svg" width="100%" viewBox="-100 -100 800 800">
  <g id="Group_3" data-name="Group 3" transform="translate(-561.727 -93.609)">
    <g id="_43" data-name="43" transform="translate(618.469 316.206)">
      <path id="Fill_225" data-name="Fill 225" d="M445.353,665.912h0a10.74,10.74,0,0,0-1.974-.149l-.414,0h-.023l-.457,0a6.355,6.355,0,0,1-2.447-.365,1.6,1.6,0,0,0-.572-.083,11.921,11.921,0,0,0-2.037.293c-.445.088-.905.179-1.312.234a2.926,2.926,0,0,1-.383.025,5.547,5.547,0,0,1-1.833-.4l-.095-.033a4.868,4.868,0,0,0-1.526-.371,1.474,1.474,0,0,0-.7.162,5.776,5.776,0,0,1-2.771.592c-.334,0-.672-.014-1-.028l-.142-.005c-.263-.01-.535-.02-.8-.02h-.09c-7.179.022-14.622.034-22.123.034-7.142,0-14.578-.01-22.1-.031H382.5c-.361,0-.738.029-1.1.058-.393.031-.79.062-1.174.062a3.265,3.265,0,0,1-2.371-.8,1.847,1.847,0,0,1-1.415.756,3.816,3.816,0,0,1-1.488-.445,4,4,0,0,0-1.561-.459,1.76,1.76,0,0,0-.265.02,5.679,5.679,0,0,1-.851.062,14.168,14.168,0,0,1-2.922-.424c-.316-.068-.619-.133-.921-.193a16.814,16.814,0,0,0-3.291-.27c-.746,0-1.514.027-2.256.053l-.066,0c-.8.029-1.575.056-2.337.056q-.321,0-.64-.007c-.189-.005-.376-.007-.562-.007l-.494,0h-.179c-.236,0-.472.006-.708.006a8.748,8.748,0,0,1-3.808-.665,7.732,7.732,0,0,0-3.146-.409,13.649,13.649,0,0,1-2.581-.165c-.389-.075-.783-.155-1.181-.236l-.024,0a31.222,31.222,0,0,0-6.2-.827h-.3c-.285,0-.568.007-.849.007a10.427,10.427,0,0,1-4.262-.692,2.878,2.878,0,0,0-1.154-.184c-.219,0-.45.011-.674.021s-.474.021-.7.021a2.711,2.711,0,0,1-2.073-.7c-.227.01-.449.014-.657.014a28.263,28.263,0,0,1-6.174-.9c-.983-.219-2-.446-3.014-.614-7.174-1.189-14.751-2.846-23.162-5.064-2.44-.643-4.927-1.286-7.331-1.907l-.034-.009c-3.862-1-7.854-2.029-11.755-3.09-1.983-.537-4.035-1.16-6.1-1.852q-1.745-.587-3.5-1.167c-5.928-1.969-12.056-4.005-17.7-6.5-2.025-.895-4.1-1.781-6.113-2.639-3.96-1.689-8.05-3.434-11.941-5.331-1.755-.858-3.694-1.583-5.569-2.284-1.462-.547-2.973-1.112-4.4-1.741-8.557-3.764-15.943-7.281-22.579-10.754q-1.069-.56-2.142-1.117c-5.622-2.926-11.434-5.951-16.33-9.748a21.905,21.905,0,0,0-2.711-1.694c-.726-.407-1.474-.826-2.149-1.286s-1.315-.99-1.931-1.5a17.359,17.359,0,0,0-3.172-2.238,29.47,29.47,0,0,1-3.711-2.35,33.308,33.308,0,0,0-3.064-2,4.615,4.615,0,0,1-1.554-1.592,3.977,3.977,0,0,0-2.97-2.059,3.35,3.35,0,0,1-2.117-1.571,4.006,4.006,0,0,0-2.52-1.82c-.46-1.31-1.715-2.037-3.044-2.808a8.564,8.564,0,0,1-2.82-2.2,16.9,16.9,0,0,0-4.451-3.713c-.742-.494-1.509-1-2.2-1.529s-1.453-1.063-2.174-1.573a36.2,36.2,0,0,1-4.609-3.644A62.336,62.336,0,0,0,131.07,567a67.541,67.541,0,0,1-5.65-4.64c-1.171-1.117-2.474-2.186-3.735-3.22a32.289,32.289,0,0,1-6.637-6.587,1.8,1.8,0,0,0-1.316-.709,2.112,2.112,0,0,1-1.009-.388,2.465,2.465,0,0,1-.639-.938,2.105,2.105,0,0,0-.722-.975,61.589,61.589,0,0,1-7.51-6.346l-.679-.64c-1.631-1.53-3.246-3.085-4.808-4.589-1.989-1.914-4.043-3.891-6.106-5.8A204.535,204.535,0,0,1,76.573,515.5c-2.5-2.879-4.935-5.855-7.289-8.734l-.023-.028q-1.035-1.265-2.072-2.529-1.206-1.466-2.416-2.929c-2.761-3.344-5.617-6.8-8.321-10.253-1.45-1.852-2.831-3.775-4.166-5.633-1.106-1.539-2.249-3.13-3.427-4.676-2.009-2.635-4.114-5.173-6.46-7.98-1.668-2-3.305-4.047-4.888-6.028-1.31-1.64-2.665-3.336-4.038-5A155.557,155.557,0,0,1,22,445.661l-.233-.368a61.5,61.5,0,0,1-4.591-8.133,36.556,36.556,0,0,0-3.013-5.573,36.642,36.642,0,0,1-3.626-7.693c-.43-1.138-.873-2.312-1.368-3.456a12.149,12.149,0,0,1-.65-2.245,15.057,15.057,0,0,0-.431-1.658c-.271-.8-.474-1.612-.67-2.4-.1-.386-.191-.766-.294-1.148-.327-1.215-.555-2.462-.776-3.667a24.352,24.352,0,0,0-2.027-6.983,1.289,1.289,0,0,1-.158-.717,17.878,17.878,0,0,0-.516-6.195,19.336,19.336,0,0,1-.573-5.8,16.616,16.616,0,0,0-.526-5.049,14.819,14.819,0,0,1-.43-5.784,5.28,5.28,0,0,1-.92-4.019,7.642,7.642,0,0,0-.161-2.579c-1.2-4.029-1.079-8.149-.96-12.134.051-1.728.1-3.509.049-5.258-.113-3.67-.089-7.4-.065-11.012.014-2.066.028-4.2.016-6.3A36.221,36.221,0,0,1,1.5,328.7c.264-1.064.536-2.164.766-3.252a4.867,4.867,0,0,1,.39-1.021,3.383,3.383,0,0,0,.465-1.753,4.93,4.93,0,0,1,2.017-4.356,1.887,1.887,0,0,1-.915-2.753,86.463,86.463,0,0,0,3.166-9.069c.735-2.387,1.493-4.851,2.418-7.243a44.322,44.322,0,0,0,2.5-8.853,15.041,15.041,0,0,1,1.23-3.575,16.4,16.4,0,0,0,1.2-3.368,22.962,22.962,0,0,1,1.482-4.318,31.028,31.028,0,0,0,1.235-3.293A16.071,16.071,0,0,1,19,272.561a18.114,18.114,0,0,0,1.492-3.074,80.531,80.531,0,0,1,4.034-9.5c.211-.439.408-.892.6-1.33a11.782,11.782,0,0,1,2.865-4.5,1.455,1.455,0,0,0,.457-.891,2.117,2.117,0,0,1,.143-.471q.224-.465.443-.93l.013-.028a35.579,35.579,0,0,1,2.5-4.658c1.18-1.762,2.274-3.6,3.332-5.369,1.226-2.055,2.493-4.179,3.9-6.2,1.267-1.825,2.452-3.708,3.6-5.53.577-.917,1.173-1.865,1.774-2.8,1.77-2.73,3.584-5.4,5.391-7.928a177.289,177.289,0,0,1,14.4-17.8,160.144,160.144,0,0,1,13.515-12.735q.907-.774,1.807-1.553A98.029,98.029,0,0,1,89.5,179.212c1.352-.884,2.662-1.84,3.928-2.765a57.681,57.681,0,0,1,6.452-4.277c2.3-1.244,4.585-2.576,6.794-3.864,1.171-.683,2.381-1.389,3.586-2.077,7.819-4.462,16.075-8.794,24.539-12.875,1.824-.88,3.693-1.766,5.5-2.623,3.1-1.468,6.283-2.978,9.35-4.508,2.9-1.449,5.952-2.788,8.9-4.083,2.861-1.256,5.819-2.554,8.638-3.952,2.2-1.092,4.627-2.079,6.971-3.034,1.228-.5,2.482-1.012,3.689-1.531,1.4-.6,2.862-1.146,4.277-1.674,2.063-.77,4.189-1.564,6.148-2.532,2.486-1.228,5.19-2.249,7.8-3.237.856-.324,1.74-.657,2.609-1s1.728-.725,2.566-1.1a22.31,22.31,0,0,1,7.713-2.366c1.12-1.395,2.988-1.866,4.795-2.322a18.748,18.748,0,0,0,2.661-.811c.849-.36,1.735-.715,2.592-1.059,1.625-.651,3.288-1.318,4.807-2.056,2.335-1.134,4.7-2.219,7.331-3.418,2.5-1.14,4.956-2.388,7.332-3.6,2.307-1.172,4.687-2.381,7.094-3.486a33.12,33.12,0,0,0,4.7-2.79c1.035-.7,2.1-1.416,3.247-2.05a94.542,94.542,0,0,0,14.442-9.942,25.041,25.041,0,0,1,5.949-3.835,4.2,4.2,0,0,0,1.824-1.71,4.762,4.762,0,0,1,1.387-1.487,51.311,51.311,0,0,0,4.245-3.092c.742-.581,1.509-1.181,2.287-1.752.753-.554,1.361-1.078,1.174-1.882l.974-.08c.6-.05,1.12-.093,1.614-.131.18-.135.263-.245.252-.336-.014-.107-.153-.177-.3-.251-.2-.1-.4-.2-.364-.4.176-.156.347-.326.513-.491a4.746,4.746,0,0,1,2.411-1.514,1.89,1.89,0,0,0,1.313-1.152A2.487,2.487,0,0,1,292.166,71a9.062,9.062,0,0,0,2.208-2.034,6.735,6.735,0,0,1,4.247-2.77,11.382,11.382,0,0,1,3.142-3.557,23.711,23.711,0,0,0,1.864-1.725,6.028,6.028,0,0,1,3.491-1.934c.588-.1.75-.525.907-.939.183-.484.372-.984,1.234-.984a2.733,2.733,0,0,1,.286.016c1.486-2.536,4.338-4.1,7.1-5.611,1.036-.568,2.106-1.154,3.077-1.78,1.328-.856,2.661-1.747,3.95-2.608a94.117,94.117,0,0,1,13.542-7.971,43.383,43.383,0,0,0,4.812-2.691,46.994,46.994,0,0,1,4.552-2.576c1.951-.921,3.905-1.881,5.8-2.81a154.78,154.78,0,0,1,16.585-7.344c1.608-.569,3.16-1.282,4.661-1.973,1.559-.717,3.17-1.458,4.845-2.037l.322-.111c6.756-2.337,13.741-4.754,20.84-6.725.273-.076.546-.16.809-.241a8.992,8.992,0,0,1,2.7-.533,5.318,5.318,0,0,1,.689.045,2.644,2.644,0,0,0,.34.023,3.139,3.139,0,0,0,1.928-.824,4.457,4.457,0,0,1,1.571-.848,14.577,14.577,0,0,1,2.323-.328,11.083,11.083,0,0,0,3.27-.623,10.2,10.2,0,0,1,1.871-.45,11.589,11.589,0,0,0,2.138-.522,26.849,26.849,0,0,1,5.986-1.379,25.574,25.574,0,0,0,6.193-1.469,7.879,7.879,0,0,1,3.075-.437h.472l.456,0c.312,0,.559,0,.777-.015a43.356,43.356,0,0,0,6.64-1.01A37.5,37.5,0,0,1,448.4,3.21c.343,0,.685.009,1.017.027.358.02.721.03,1.081.03a21.671,21.671,0,0,0,6.943-1.2l.154-.052a5.582,5.582,0,0,1,1.658-.386,1.567,1.567,0,0,1,.484.07,7.09,7.09,0,0,0,2.213.325,19.032,19.032,0,0,0,2.532-.227c.677-.091,1.373-.185,2.055-.215a27.266,27.266,0,0,0,3.009-.353A23.767,23.767,0,0,1,473.2.858c.186,0,.371,0,.549.013.531.024,1.078.06,1.607.1.983.065,2,.131,2.98.131a12.685,12.685,0,0,0,2.991-.3A29.1,29.1,0,0,1,488.24.117c.836,0,1.683.016,2.5.031s1.684.032,2.527.032h.394c.5,0,1.018-.046,1.52-.088.535-.044,1.087-.09,1.629-.09a5.058,5.058,0,0,1,3.084.859A.7.7,0,0,0,500.3,1a1.824,1.824,0,0,0,.922-.418l.057-.038A2.06,2.06,0,0,1,502.4.086a1.44,1.44,0,0,1,.921.38,2.064,2.064,0,0,0,1.366.493,4.8,4.8,0,0,0,1.752-.423,1.2,1.2,0,0,1,.455-.084,3.475,3.475,0,0,1,1.132.278,3.536,3.536,0,0,0,1.153.288A1.172,1.172,0,0,0,509.8.85a5.7,5.7,0,0,1,2.5-.843.68.68,0,0,1,.551.181,1.106,1.106,0,0,0,.924.446,3.342,3.342,0,0,0,.737-.112,3.152,3.152,0,0,1,.695-.114.741.741,0,0,1,.67.35.581.581,0,0,0,.386.133l.035,0c.518-.047,1.064-.071,1.624-.071a39.5,39.5,0,0,1,5.316.478l.04.005a40.09,40.09,0,0,0,5.333.474c.341,0,.677-.009,1-.025.3-.016.615-.024.93-.024a29.724,29.724,0,0,1,7.125,1.008,50.632,50.632,0,0,0,6.466,1.022l.077.009.925.106a53.624,53.624,0,0,1,6.143,1.2,51.578,51.578,0,0,0,6.3,1.215,1.8,1.8,0,0,1,1.016.654,1.669,1.669,0,0,0,1.134.666,1.924,1.924,0,0,0,1.13-.495,2.231,2.231,0,0,0,1.865.679c.144,0,.289,0,.434-.007s.3-.008.449-.008a3.6,3.6,0,0,1,.905.094,5.244,5.244,0,0,1,1.671.914c.273.193.555.392.872.588.214-.015.431-.023.641-.023a18.449,18.449,0,0,1,5.429,1.117c.325.1.649.2.978.3a138.232,138.232,0,0,1,13.632,4.8q1.059.444,2.126.882c5.269,2.177,10.705,4.423,14.949,7.827a2.589,2.589,0,0,0,1.7.452,2.669,2.669,0,0,1,1.474.318c1.484.96,3.026,1.9,4.516,2.816a74.883,74.883,0,0,1,11.939,8.413,26.182,26.182,0,0,0,3.5,2.542,27.246,27.246,0,0,1,3.522,2.553c1.342,1.225,2.773,2.42,4.157,3.576a59.154,59.154,0,0,1,8.236,7.822c1.114,1.378,2.428,2.734,3.7,4.045,1.082,1.117,2.2,2.266,3.2,3.438,4.348,5.087,8.759,10.638,11.571,16.763q.529,1.15,1.066,2.3a118.21,118.21,0,0,1,4.779,11.275,10.737,10.737,0,0,1,.431,2.162,7.812,7.812,0,0,0,.6,2.507,8.312,8.312,0,0,1,.842,4.335,2.312,2.312,0,0,0,.583,1.416,2.115,2.115,0,0,1,.563,1.742c-.245,1.018-.523,2.17.774,3.219.414.334.32,1.042.229,1.726a6.55,6.55,0,0,0-.079.883c0,.381.025.771.048,1.148a8.219,8.219,0,0,1-.129,2.684c-.111.4.154.771.411,1.132.4.567.783,1.1-.257,1.685a2.186,2.186,0,0,1,.96,2.519,4.954,4.954,0,0,0-.041,1.034,19.731,19.731,0,0,1,.041,2.4c-.008.362-.017.711-.017,1.06v3.847a10.89,10.89,0,0,1-.076,1.1,4.482,4.482,0,0,0,.161,2.344,7.765,7.765,0,0,1,.531,3.369,9.819,9.819,0,0,0,.259,2.646,16.059,16.059,0,0,1,.206,5.554l0,.045c-.034.437-.068.872-.093,1.305a6.92,6.92,0,0,0,.581,2.7,6.154,6.154,0,0,1,.541,3.145c-.315,1.867-.706,4.191.089,6.113a8.179,8.179,0,0,1,.462,3.02,6.239,6.239,0,0,0,.623,3.164,5.831,5.831,0,0,1,.588,3.557,6.243,6.243,0,0,0,.25,2.73,33.226,33.226,0,0,1,1.675,6.911,35.024,35.024,0,0,0,1.472,6.348c.832,2.268,1.517,4.6,2.179,6.853a79.6,79.6,0,0,0,3.24,9.508c.755,1.727,1.559,3.476,2.338,5.168.8,1.741,1.624,3.53,2.393,5.3a51.386,51.386,0,0,0,5.427,8.817q.407.572.81,1.143a86.991,86.991,0,0,0,9.983,11.505c1.953,1.94,4.129,3.778,6.235,5.555,1.893,1.6,3.848,3.249,5.628,4.963.792.764,1.677,1.48,2.533,2.172a33.226,33.226,0,0,1,2.922,2.558,21.639,21.639,0,0,0,3.181,2.506,21.972,21.972,0,0,1,3.149,2.472,72.364,72.364,0,0,0,6.144,5.355,49.6,49.6,0,0,1,8.29,7.8,68.947,68.947,0,0,1,10.939,10.438c1.967,2.181,4,4.436,6.221,6.527a39.437,39.437,0,0,1,4.948,6.052c.749,1.054,1.522,2.14,2.342,3.175a168.744,168.744,0,0,1,9.971,14.56l.822,1.295a107.651,107.651,0,0,1,7.909,15.221c.676,1.559,1.32,3.152,1.942,4.692.869,2.15,1.768,4.372,2.764,6.531a4.558,4.558,0,0,1,.305,1.807,3.109,3.109,0,0,0,1.1,2.752,14.081,14.081,0,0,0,1.028,5.106,13.276,13.276,0,0,1,1.005,5.412c1.388,1.862,1.195,3.9,1.007,5.863-.024.249-.047.5-.068.744a4.173,4.173,0,0,0,.616,2.162,3.663,3.663,0,0,1,.558,2.535c-.4,1.639-.705,3.509.053,4.951a10.936,10.936,0,0,1,.876,5.869c-.026.633-.052,1.286-.038,1.933.137,6.17.133,12.254-.012,18.084a13.056,13.056,0,0,0,.112,1.722c.154,1.408.313,2.862-.687,4.237a3.534,3.534,0,0,0-.42,2.571,3.407,3.407,0,0,1-.629,2.877c-.283.316-.017.581.264.861s.6.6.445,1.021a4.709,4.709,0,0,0-.115,2.061,3.7,3.7,0,0,1-.687,3.092,2.48,2.48,0,0,0-.367,2.053,2.613,2.613,0,0,1-.738,2.6c-.425.368-.079.8.288,1.255.314.39.638.793.493,1.183-.1.268-.409.5-.947.708a9.458,9.458,0,0,1-.577,4.569c-.16.539-.326,1.1-.452,1.648a6.253,6.253,0,0,0-.034,1.916,4.137,4.137,0,0,1-.671,3.256,2.846,2.846,0,0,0-.382,2.173,2.668,2.668,0,0,1-.938,2.793,7.03,7.03,0,0,1-.472,4.189,9.482,9.482,0,0,0-.646,3.187,16.28,16.28,0,0,1-1.187,5.533l-.068.2c-.959,2.871-1.834,5.825-2.6,8.78a23.872,23.872,0,0,1-1.13,3.13,1.845,1.845,0,0,1-.477.594,1.378,1.378,0,0,0-.576,1.009c.045,4.081-1.66,7.947-3.309,11.685-.3.671-.59,1.339-.875,2.006-.3.7-.575,1.409-.845,2.1a27.349,27.349,0,0,1-2.917,5.96,3.667,3.667,0,0,0-.43,1.087,3.126,3.126,0,0,1-.789,1.577,12.44,12.44,0,0,0-3.2,5.215c-.206.52-.438,1.108-.689,1.658a12.539,12.539,0,0,1-2.26,3.529,1.579,1.579,0,0,1-.335.238c-.176.1-.343.2-.345.311-.048,2.412-1.546,4.421-2.994,6.365a29.634,29.634,0,0,0-1.76,2.541c-.78,1.321-1.726,2.61-2.64,3.856a41.682,41.682,0,0,0-2.949,4.4,82.727,82.727,0,0,1-6.158,9.116c-1.764,2.378-3.587,4.836-5.13,7.353a27.594,27.594,0,0,1-2.768,3.57l-.015.017c-.368.424-.716.824-1.016,1.195a1.1,1.1,0,0,0,.333,1.389c.262.279.51.541.4.99-.236.851-1.317,1.217-2.985,1.533.529,2.132-.981,3.721-2.442,5.258-.46.484-.935.984-1.333,1.489-3.844,4.877-8.071,9.765-12.563,14.528q-.623.659-1.241,1.32a87.294,87.294,0,0,1-7.949,7.772c-10.387,8.6-21.5,17.179-33.959,26.217l-.934.678c-4.078,2.962-8.294,6.024-12.638,8.859l-.964.629c-3.6,2.349-7.322,4.778-11.145,6.968-9.568,5.47-19.455,11.123-29.755,16.137-7.617,3.712-15.626,7.131-23.37,10.437l-.744.318c-5.046,2.158-10.413,4.228-15.953,6.153-8.8,3.058-17.652,5.952-26.3,8.6-3.714,1.138-7.6,2.011-11.362,2.855a122.487,122.487,0,0,0-14.008,3.73,32.679,32.679,0,0,0-7.755,1.25,32.512,32.512,0,0,1-7.788,1.249q-.186,0-.374,0a14.286,14.286,0,0,1-5.521,1.16c-.771.059-1.566.12-2.319.229-.782.114-1.574.277-2.34.435a22.642,22.642,0,0,1-4.581.618,11.2,11.2,0,0,1-1.273-.071,2.258,2.258,0,0,0-.264-.015,4.967,4.967,0,0,0-1.6.369l-.068.024a5.615,5.615,0,0,1-1.833.394,3.254,3.254,0,0,1-.386-.023,11.857,11.857,0,0,0-1.453-.1,4.76,4.76,0,0,0-2.589.642,1.238,1.238,0,0,0-.869-.418,2.171,2.171,0,0,0-.98.343l-.042.022a2.37,2.37,0,0,1-1.119.368,1.418,1.418,0,0,1-.355-.046,9.574,9.574,0,0,0-2.375-.292,7.489,7.489,0,0,0-2.125.277,15.74,15.74,0,0,1-4.526.5l-.694,0-.722,0a14.706,14.706,0,0,0-3.769.361,15.155,15.155,0,0,1-3.976.42c-.343,0-.686,0-1.026-.009h-.044c-.308,0-.615-.006-.92-.006a14.523,14.523,0,0,0-3.309.3,10.553,10.553,0,0,1-2.426.261,26.944,26.944,0,0,1-3.17-.249,26.5,26.5,0,0,0-3.132-.248,10.716,10.716,0,0,0-1.652.119.294.294,0,0,1-.044,0,1.507,1.507,0,0,1-.715-.406,4.519,4.519,0,0,0-.379-.281c-.431.134-.486.4-.549.713a1.483,1.483,0,0,1-.286.7c-.343-.146-.689-.316-1.024-.48a9.145,9.145,0,0,0-2.443-.924,10.575,10.575,0,0,0-1.773-.125c-.463,0-.928.016-1.421.033-.526.018-1.06.037-1.613.037-.842.772-1.793,1.651-2.627,2.423Zm228.706-72.435a1.64,1.64,0,0,0-1.109.492,42.434,42.434,0,0,1-7.221,4.522c-3.408,1.815-6.688,3.826-9.86,5.77-2.4,1.472-4.879,2.991-7.393,4.414-1.067.605-2.131,1.251-3.16,1.875a64.97,64.97,0,0,1-6.167,3.441c-3.52,1.642-7.019,3.4-10.4,5.1-3.64,1.828-7.4,3.718-11.2,5.469-6.1,2.812-12.456,5.439-18.6,7.981-3.783,1.564-7.7,3.181-11.513,4.827a26.758,26.758,0,0,1-3.714,1.181,25.724,25.724,0,0,0-3.645,1.161,105.263,105.263,0,0,1-15.738,5.613c-1.812.471-3.581,1.072-5.292,1.654a60.033,60.033,0,0,1-6.947,2.047,31.9,31.9,0,0,0-8.072,2.587,3.076,3.076,0,0,0,1.445.363,4.26,4.26,0,0,0,1.4-.265c2.91-1,5.98-1.807,8.95-2.586,1.117-.293,2.258-.592,3.37-.9,7.845-2.148,15.347-4.686,21.651-6.885,13.01-4.533,24.628-9.123,35.518-14.034,5.967-2.688,10.444-4.82,14.515-6.913,2.607-1.338,5.185-2.78,7.679-4.174,2.354-1.316,4.774-2.669,7.213-3.934,2.9-1.5,5.655-3.211,8.32-4.862,1.784-1.105,3.626-2.246,5.495-3.317,1.614-.924,3.134-1.974,4.6-2.989A46.718,46.718,0,0,1,670.933,597a7.507,7.507,0,0,0,1.665-1.19c.168-.145.333-.288.5-.425.21-.171.446-.336.675-.495a4.057,4.057,0,0,0,1.281-1.173A2.576,2.576,0,0,0,674.059,593.477ZM386.64,632.662h0a.984.984,0,0,1,.776.847.809.809,0,0,0,.683.731c.957,0,1.962.054,2.934.107,1,.055,2.021.11,3.006.11a14.335,14.335,0,0,0,3.561-.371,22.635,22.635,0,0,1,5.711-.551l.763,0h.051l.735,0c.595,0,1.3,0,2.023-.035,1.107-.05,2.294-.073,3.736-.073.962,0,1.942.011,2.889.021h.058c.913.01,1.948.021,2.948.021.234,0,.467,0,.7,0s.466,0,.7,0c.446,0,.805-.007,1.132-.023a1.608,1.608,0,0,0,.578-.192c.09-.043.177-.084.264-.118a4.145,4.145,0,0,1,.05-.475,1.487,1.487,0,0,0-.244-1.334,10.194,10.194,0,0,1-2.54.569c-.7,0-1.137-.3-2.1-.951l-.305-.206c-.682-.458-.462-.816-.268-1.131.111-.181.216-.352.146-.524-.335-.841-1.223-.922-2.08-1a3.245,3.245,0,0,1-1.54-.381c-.4-.206-.322-.51-.237-.832.107-.406.217-.825-.722-1.029a2.676,2.676,0,0,0-.24,1.395,1.887,1.887,0,0,1-1.619,2.256,7.875,7.875,0,0,0-2.239-.622c-.746,0-1.184.517-2.244,1.768-.041.462.4.5.863.534.515.041,1.047.083,1.028.686a2.763,2.763,0,0,0-.289-.014,6.207,6.207,0,0,0-.76.06,6.286,6.286,0,0,1-.733.061c-.52,0-1.078-.139-1.279-1.171-.08-.395-1.116-.677-1.948-.9-.311-.085-.577-.157-.749-.224-.043,0-.085,0-.125,0a1.479,1.479,0,0,0-.9.289l-.09.063a.894.894,0,0,1-.52.228.826.826,0,0,1-.353-.092,3.342,3.342,0,0,1-1.556-1.672,4.952,4.952,0,0,0-.554-.875,4.123,4.123,0,0,1,.846-.666c.425-.278.826-.541.92-.946a1.912,1.912,0,0,0-.819-.2,2.138,2.138,0,0,0-1.121.4l-.028.017a2.023,2.023,0,0,1-1.04.383,1.358,1.358,0,0,1-.426-.071c-.291-.209-.623-.444-1.4-.992l-.21-.149c.22.687.386,1.208.53,1.662l.272.855a1.755,1.755,0,0,0-1.878,1.519,2.115,2.115,0,0,1-1.751,1.737c-.588.029-1.193.032-1.707.032l-.677,0h-.435a21.576,21.576,0,0,0-6.4.693c-.677.206-1.02.4-1.112.631-.1.253.1.541.468.954l.036,0h.347c.4,0,.8.009,1.19.018s.808.018,1.21.018a7.83,7.83,0,0,0,4.083-.839Zm276.254-91.971a22.612,22.612,0,0,0-7.212,3.813,31.187,31.187,0,0,1-4.452,2.766,125.718,125.718,0,0,0-11.951,6.809c-2.789,1.73-5.522,3.559-8.166,5.327l-.022.015c-1.125.753-2.289,1.531-3.437,2.288a4,4,0,0,0,1.368.279,1.954,1.954,0,0,0,1.236-.386,13.926,13.926,0,0,1,4.267-1.924c2-.65,4.061-1.321,5.246-2.928a7.121,7.121,0,0,0,4.5-1.893,15.623,15.623,0,0,1,1.505-1.05,8.543,8.543,0,0,1,4.052-1.245c.084,0,.168,0,.25.007A8.539,8.539,0,0,1,654.4,549.4a6.73,6.73,0,0,0,1.815-1.083,5.961,5.961,0,0,1,2.648-1.333c-.614-.983-.863-1.522-.626-1.912.3-.489,1.376-.758,3.595-1.215a.884.884,0,0,0-.363-.425.92.92,0,0,1-.438-1.132l.726-.627.039-.034c.34-.294.72-.623,1.1-.952h0Zm-39.8-11.7a14.132,14.132,0,0,0-5.227,2.77,25.777,25.777,0,0,1-2.18,1.5c-.983.581-1.992,1.146-2.968,1.693-1.83,1.025-3.719,2.083-5.46,3.255-3.065,2.065-5.569,3.689-7.881,5.11-1.064.653-2.19,1.276-3.278,1.879a45.567,45.567,0,0,0-5.842,3.627c-.281.217-.554.466-.818.707a5.361,5.361,0,0,1-2.09,1.384,8.115,8.115,0,0,0-2.92,1.578c-.189.141-.371.277-.559.411-.8.565-1.571,1.157-2.314,1.729l-.03.023c-.3.231-.6.46-.892.682a2.086,2.086,0,0,0,1.2.372,4.725,4.725,0,0,0,1.509-.341l.04-.014a4.4,4.4,0,0,1,1.4-.325,1.748,1.748,0,0,1,1.368.673,17.631,17.631,0,0,1,4.928-2.344c.646-.23,1.314-.468,1.956-.728,1.531-.619,3.015-1.352,4.45-2.06,1.181-.583,2.4-1.186,3.642-1.723a1.782,1.782,0,0,0,.8-.835,1.388,1.388,0,0,1,1.316-.9,2.673,2.673,0,0,1,.412.035c2.71-3.713,7.2-6.133,11.542-8.473l1.133.582.193.1.254.131.149-.107,1.305-.938c-.161-.133-.316-.264-.468-.391-.174-.146-.338-.284-.5-.418a1.094,1.094,0,0,1,.962-.381c.139,0,.285.009.426.018.163.011.316.021.462.021a1.082,1.082,0,0,0,1.075-.529l-.363-.105-.033-.01c-.471-.136-.926-.268-1.386-.4.167-2.355.167-2.355,3.005-2.82.468-.075.9-.212.891-.711.092-.436-.254-.669-.589-.893a2.366,2.366,0,0,1-.412-.321,2.887,2.887,0,0,1,.992-.774C623.011,530.311,623.766,529.869,623.091,529Zm-1.832-7.15v0a1.519,1.519,0,0,0-.707.2.9.9,0,0,1-.091.062c-.09.057-.192.122-.192.189-.019.809-.018,1.628-.017,2.494v.7c-7.686,2.839-24.685,12.848-27.038,18.231.547-.259,1.113-.464,1.66-.661,1.5-.541,2.911-1.05,3.435-2.552.148-.421.676-.744,1.235-1.086a4.81,4.81,0,0,0,1.139-.851,2.1,2.1,0,0,1,1.783-.548,2.392,2.392,0,0,0,1.772-.476,8.276,8.276,0,0,1,1.714-1.133,5.19,5.19,0,0,0,1.975-1.494,4.133,4.133,0,0,1,2.269-1.529,5.182,5.182,0,0,0,1.765-.954c.119-.114.239-.23.36-.348l.016-.016a8.283,8.283,0,0,1,3.224-2.263,3.6,3.6,0,0,0,1.628-1.129,2.582,2.582,0,0,1,1.976-1.058q.075,0,.154,0c.046,0,.092,0,.135,0a1.758,1.758,0,0,0,1.562-.96l.026-.037a1.638,1.638,0,0,1,1.431-.922,2.325,2.325,0,0,1,.3.02,13.115,13.115,0,0,1,2.864-1.727,11.5,11.5,0,0,0,3.2-2.034c.55-.567.874-1.018.032-1.662a10.131,10.131,0,0,0-4.142,1.658c-.446.264-.867.514-1.3.733a2.7,2.7,0,0,1-1.149-.467,1.944,1.944,0,0,0-1.011-.386ZM449.273,462.552c-.178.026-.342.042-.494.057-.666.066-1.1.11-1.422.85-.832,1.936-1.754,3.885-2.646,5.771-1.029,2.176-2.091,4.419-3.02,6.654-.157.376-.354.756-.545,1.122a4.952,4.952,0,0,0-.844,3.439c-1.9,2.387-2.59,5.113-3.261,7.749-.18.71-.367,1.443-.574,2.153-.7,2.384-1.563,4.782-2.4,7.1l-.008.022c-.354.978-.719,1.988-1.064,2.978-.752,2.149-1.473,4.345-2.17,6.467a151.847,151.847,0,0,1-5.772,15.6,3.157,3.157,0,0,1-.424,2.257c-.455,1-.925,2.034.088,3.194a9.608,9.608,0,0,1,1.833-4.382,14.036,14.036,0,0,0,1.565-3.009c.577-1.792,1.28-3.588,1.96-5.325.509-1.3,1.033-2.639,1.5-3.969.262-.746.543-1.5.814-2.228l.007-.019a52.472,52.472,0,0,0,1.888-5.739,31.986,31.986,0,0,1,1.7-4.711c.488-1.156.989-2.346,1.374-3.542.21-.655.413-1.314.616-1.972a52.065,52.065,0,0,1,2.394-6.672c.146-.313.295-.624.444-.934l.015-.031a23,23,0,0,0,1.547-3.787l.005-.018a20.379,20.379,0,0,1,2.069-5.466,5.513,5.513,0,0,0,.63-2.029,3.8,3.8,0,0,1,2.084-3.3c.6-.3.369-1.1.1-1.76a2.311,2.311,0,0,0-.437-.553c-.131-.137-.21-.221-.187-.238a4.586,4.586,0,0,0,1.759-3.253A6.813,6.813,0,0,1,449.273,462.552ZM67.914,451.964h0a116.294,116.294,0,0,0,10.558,14.957c3.946,4.938,7.582,9.325,11.113,13.412,1.348,1.564,2.524,3.222,3.662,4.826l.049.069c.315.444.631.889.95,1.332a1.762,1.762,0,0,0,.63.443c.085.043.158.08.212.115.415-.252.788-.478,1.183-.716l.627-.378c-.183-.274-.344-.559-.5-.834a4.784,4.784,0,0,0-1.322-1.7,1.993,1.993,0,0,0-.534-.233,1.293,1.293,0,0,1-.989-.809,79.791,79.791,0,0,0-4.1-9.847c-.252-.483-.456-.993-.653-1.487a7.879,7.879,0,0,0-2.145-3.406c-3.542-2.994-7.063-6.092-10.469-9.088l-.016-.014q-1.4-1.235-2.808-2.468a3.153,3.153,0,0,0-.405-.285c-.352-.222-.715-.45-.713-.9,0-.651-.6-1-1.183-1.341a6.161,6.161,0,0,1-.607-.385c-.124-.095-.24-.2-.362-.316a2.94,2.94,0,0,0-2.182-.947Zm495.808-67.924c-8.525,10.82-16.32,22.086-23.859,32.98l-.03.044c-2.281,3.3-4.639,6.7-6.98,10.045a1.369,1.369,0,0,0-.083.971,3.533,3.533,0,0,1,.046.479,124.946,124.946,0,0,0,15.244-18.676c3.145-4.522,6.24-9.156,9.233-13.636,2.148-3.216,4.37-6.542,6.594-9.8a1.639,1.639,0,0,0-.166-2.4Zm184.223-89.022a1.372,1.372,0,0,0-.636.193,5.717,5.717,0,0,1,.161.659,4.139,4.139,0,0,0,.6,1.609,55.758,55.758,0,0,1,3.684,6.94c.561,1.19,1.141,2.421,1.76,3.615a91.445,91.445,0,0,1,4.9,11.487c.489,1.369,1.042,2.767,1.578,4.119l.012.031c.271.684.54,1.364.8,2.037.247.639.45,1.285.664,1.968a15.461,15.461,0,0,0,3.111,6.165,22.691,22.691,0,0,0-.806-6.294,51.637,51.637,0,0,0-1.754-5.39c-.479-1.305-.973-2.654-1.373-4a54.557,54.557,0,0,0-4.431-9.8c-.682-1.278-1.387-2.6-2.033-3.91-.1-.21-.207-.423-.312-.638l-.031-.064a18,18,0,0,0-2.286-3.845,19.449,19.449,0,0,1-2.956-4.433A.688.688,0,0,0,747.944,295.017ZM162.388,227.8c-.534.4-1.072.793-1.592,1.17a34.912,34.912,0,0,0-3.276,2.567,16.9,16.9,0,0,1-2.5,1.789,19.618,19.618,0,0,0-2.267,1.577,31.744,31.744,0,0,0-2.306,2.231,23.752,23.752,0,0,1-3.271,2.984,90.526,90.526,0,0,0-9.918,8.616l-.014.014q-.8.769-1.606,1.536a125.935,125.935,0,0,0-12.284,14.18c-.877,1.122-1.777,2.274-2.673,3.4a28.881,28.881,0,0,0-1.99,2.975c-.273.448-.555.91-.845,1.36,6.1-5.684,11.93-11.651,17.573-17.422,8.559-8.754,17.41-17.8,27.3-26,.071-.06,0-.219-.116-.46C162.542,228.179,162.46,228,162.388,227.8Zm253.276.941v0a4.538,4.538,0,0,0-3.115,1.379c-2.371,2.181-4.589,4.515-6.734,6.772l-.128.135-.954,1c-.7.734-1.363,1.507-2,2.256a37.972,37.972,0,0,1-3.172,3.4,87.56,87.56,0,0,0-8.282,9.068q-.849,1.024-1.7,2.041l-2.085,2.48-.079.095c-3.06,3.641-6.216,7.4-9.382,11.061a1.958,1.958,0,0,0-.5,2.373,2.1,2.1,0,0,0,1.925-1.451,2.494,2.494,0,0,1,.89-1.152,16.244,16.244,0,0,0,3.151-2.8c2.851-3.1,6.038-6.1,9.12-9q1.251-1.177,2.5-2.357c.674-.641,1.356-1.281,2.037-1.921,2.158-2.026,4.389-4.12,6.362-6.246,1.085-1.169,2.277-2.306,3.429-3.406a56.726,56.726,0,0,0,4.634-4.78,25.69,25.69,0,0,1,2.841-2.777c1.753-1.546,3.565-3.145,4.287-5.264a6.529,6.529,0,0,0-3.032-.916ZM36.194,256.535a.85.85,0,0,1,.612.4c-.319.583-.623,1.2-.917,1.793a22.789,22.789,0,0,1-2.533,4.289c-1.008,1.258-.8,2.191-.373,3.608a12.358,12.358,0,0,0,.825-1.275,4.221,4.221,0,0,1,2.816-2.462c-.068-.052-.137-.1-.2-.152-.654-.48-1.217-.894-.314-1.727a3.725,3.725,0,0,1,2.638-.792c.167-.007.335-.013.505-.024a.4.4,0,0,0,.358-.181.274.274,0,0,0-.111-.337l-1.01-.272-.07-.019-.965-.259c.625-.893,1.194-1.811,1.744-2.7a27.253,27.253,0,0,1,4.056-5.456l1.069.809c.544-.432.964-.764,1.379-1.092l.115-.091a3.2,3.2,0,0,1-1.258-1.487,4.488,4.488,0,0,0-.581-.92c.245-.573.8-.651,1.365-.651.169,0,.346.008.517.016.191.009.366.017.536.017.62,0,1.219-.1,1.4-.826-.181-.3-.57-.329-.946-.358-.458-.035-.891-.068-1.006-.534a2.738,2.738,0,0,1,.846-2.265,6.006,6.006,0,0,0,.685-1.036,2.111,2.111,0,0,1,.43-.039c.155,0,.312.011.463.022l.026,0c.163.013.332.027.5.027a1.478,1.478,0,0,0,1.015-.327c-.833-.816-1.508-1.634-.616-2.621a14.315,14.315,0,0,0,1.633-2.349,9.2,9.2,0,0,1,3.4-3.754A1.8,1.8,0,0,0,55,232.482a1.607,1.607,0,0,1,1-1.112c-.542-1.414.4-2.46,1.313-3.471.257-.285.524-.58.748-.876q.827-1.086,1.649-2.175c2.706-3.576,5.505-7.275,8.54-10.771C73,208.6,77.912,202.929,83.4,197.707c.983-.935,1.954-1.905,2.893-2.844a60.712,60.712,0,0,1,8.836-7.736c.4-.27.6-.553.592-.818a.754.754,0,0,0-.446-.58c-15.92,10.425-28.81,23.921-41.788,43.761-.068-.055-.135-.11-.2-.164a2.134,2.134,0,0,0-1.375-.667,1.9,1.9,0,0,0-.6.105c-.241.38-.47.778-.692,1.162a14.675,14.675,0,0,1-1.79,2.639c-1.334,1.464-1.283,2.695.154,3.762-.69.99-1.31,1.877-1.886,2.7l-.8,1.148c-.277.022-.577.022-.867.022-.581,0-1.082,0-1.206.168-.265.356-.57.712-.865,1.055-1.179,1.372-2.394,2.786-1.444,4.678-.084,0-.163-.006-.223-.006a2.049,2.049,0,0,0-2.028,1.212,2.277,2.277,0,0,1-.823.909c.367.574-.034,1.053-.459,1.561-.526.629-1.071,1.279-.1,2.146a1.337,1.337,0,0,1,.564,1.438c-.2.553-.876,1.014-1.917,1.3-.156-.12-.312-.237-.493-.374l-.333-.251c.081.53-.35.916-.768,1.289-.508.454-.988.883-.58,1.54a.619.619,0,0,0,.385.155.965.965,0,0,0,.531-.24A.956.956,0,0,1,36.194,256.535Zm117.352-76.273a2.8,2.8,0,0,0-1.97.915,3.656,3.656,0,0,1-.888.637,88.751,88.751,0,0,0-14.009,7.787A181.342,181.342,0,0,0,113.76,208.55c-.767.736-1.607,1.438-2.421,2.118a36.07,36.07,0,0,0-3,2.7c-5.164,5.438-10.444,11.2-16.143,17.606a11.144,11.144,0,0,0-2.786,4.7,17.838,17.838,0,0,0,5.774-4.164,28.248,28.248,0,0,1,2.362-2.123A49.566,49.566,0,0,0,102.3,225c.451-.454.9-.908,1.354-1.355,1.064-1.047,2.269-2.017,3.433-2.954a44.815,44.815,0,0,0,3.424-2.95l.351-.348a90.1,90.1,0,0,1,9.4-8.49c.287-.215.611-.424.925-.626a5.464,5.464,0,0,0,1.845-1.581,11.814,11.814,0,0,1,4.005-3.7,25.627,25.627,0,0,0,2.236-1.631,28.1,28.1,0,0,0,2.151-2.106,17.94,17.94,0,0,1,3.875-3.345,3.647,3.647,0,0,1,.774-.314,2.74,2.74,0,0,0,1.4-.811,31.032,31.032,0,0,1,4.775-4.131,28.1,28.1,0,0,0,5.232-4.667,3.174,3.174,0,0,0,2.373-1.542,4.439,4.439,0,0,1,1.134-1.147,29.119,29.119,0,0,0,2.583-1.893c.387-.306.784-.619,1.2-.931a3.884,3.884,0,0,0-1.212-.219Zm350.761,16.612a3.274,3.274,0,0,1,1.347.339,3.268,3.268,0,0,0,1.332.343,2.934,2.934,0,0,0,.749-.1,10.657,10.657,0,0,0,2.552-1.119,15.189,15.189,0,0,1,1.442-.732,4.071,4.071,0,0,0,2.709-3.633c.046-.768.585-.883,1.155-1.006a2.183,2.183,0,0,0,.939-.356c.127-2.51-.046-4.936-3.536-7.011a34.381,34.381,0,0,1-3.636,4.675c-2.229,2.55-4.534,5.187-5.149,8.606l.051,0h.044ZM269.838,96.736a4.907,4.907,0,0,0-2.4.818v2.63a3.157,3.157,0,0,0-2.819,1.865,4.309,4.309,0,0,1-2.389,2.093,13.6,13.6,0,0,0-4.206,2.657c-.56.459-1.14.933-1.735,1.353.226.4.7.471,1.166.542.538.083,1.095.168,1.288.752.388-.259.753-.552,1.107-.835a5.686,5.686,0,0,1,3.733-1.678,5.41,5.41,0,0,1,.789.061v-1.818a8.581,8.581,0,0,0,3.789-2.056c.251-.2.508-.407.768-.6a6.944,6.944,0,0,1,1.566-.786c1.108-.448,2.254-.91,2.334-2.157.086.006.174.01.274.01a2.637,2.637,0,0,0,2.272-1.311A3.4,3.4,0,0,1,276.918,97a9.7,9.7,0,0,0,2.98-1.953c.35-.3.707-.6,1.07-.874a19.12,19.12,0,0,0,1.882-1.7,17.16,17.16,0,0,1,1.864-1.671,15.917,15.917,0,0,0,1.441-1.25,10.626,10.626,0,0,1,2.313-1.8c.406-.214.85-.41,1.279-.6,1.256-.555,2.549-1.126,3.079-2.208.738-1.492,2.157-2.216,4.208-2.9a1.728,1.728,0,0,1,.19-1.754c.615-.714,2.015-.906,3.37-1.092.194-.027.388-.053.58-.081l-1.017-.769c.036-.513.458-.519.9-.524.351,0,.714-.009.882-.279.122-.2.242-.4.363-.6a8.709,8.709,0,0,1,3.634-3.871,12.539,12.539,0,0,0,3.449-2.586,19.784,19.784,0,0,1,1.764-1.561c7.671-5.78,14.7-10.824,21.5-15.42a4.459,4.459,0,0,0,.5-.413,2.041,2.041,0,0,1,.967-.611,11.542,11.542,0,0,0,5.334-2.643,22.71,22.71,0,0,1,2.106-1.461c1.065-.629,2.078-1.345,3.056-2.037a30.066,30.066,0,0,1,4.481-2.788c4.317-2.025,8.146-3.906,11.3-6.422a1.352,1.352,0,0,1,.66.431c.112.117.2.209.32.209a.29.29,0,0,0,.105-.021c.617-.431,1.192-.917,1.748-1.388a8.344,8.344,0,0,1,3.7-2.214,7.85,7.85,0,0,0,3.592-1.695,13.847,13.847,0,0,1,2.256-1.408c-4.828.38-4.828.38-7.4,2.281a2.024,2.024,0,0,0-1.029-.263,5.537,5.537,0,0,0-1.388.246,6.05,6.05,0,0,1-1.5.256,2.582,2.582,0,0,1-1.219-.293,8.084,8.084,0,0,0-.187.788c-.224,1.105-.455,2.248-2.441,2.248-.173,0-.36-.009-.556-.026q-.09-.008-.175-.008a1.216,1.216,0,0,0-1.064.5c-.984,1.642-2.9,2.494-4.746,3.318a24.643,24.643,0,0,0-2.415,1.182l-.486.288a9.834,9.834,0,0,1-5.007,1.847,5.817,5.817,0,0,1-1.141-.114,8.556,8.556,0,0,1-4.653,3.9l-.453-.317-.888-.627-1.381,2.3-.389.648a12.559,12.559,0,0,0-4.637,1.29l-.146.062v1.527a5.8,5.8,0,0,0-3.281,1.708l-.25.214a4.233,4.233,0,0,1-1.182.624,2.662,2.662,0,0,0-1.8,1.464c-.238.669-1.127,1.216-1.987,1.746-.382.235-.776.478-1.107.728a5.168,5.168,0,0,1-.817.052c-.156,0-.308,0-.462-.006s-.329-.008-.494-.008a4.337,4.337,0,0,0-2.014.4c.95.282,1.533.455,2.8.828a3.335,3.335,0,0,0-3.016,1.558,3.993,3.993,0,0,1-.936.962c-1.423.948-2.768,2-4.069,3.009-.559.436-1.136.884-1.711,1.32.164.3.191.532.083.7-.154.238-.555.323-.979.413-.614.13-1.249.265-1.206.88a.614.614,0,0,1-.186.563.969.969,0,0,1-.615.15c-.173,0-.356-.016-.55-.032s-.389-.031-.57-.031c-.365,0-.8.056-.935.494l.274.26.027.025c-1.624,1.228-3.162,2.395-4.674,3.542l-.1.08-2.111,1.6a.325.325,0,0,1-.223.116c-.129,0-.238-.123-.353-.252l-.023-.026a.648.648,0,0,0-.45-.278.639.639,0,0,0-.413.2c-.227.174-.336.339-.332.5.006.282.342.524.667.758s.674.485.658.771c-.011.193-.181.387-.52.594a.642.642,0,0,1-.139.016.753.753,0,0,1-.512-.264.753.753,0,0,0-.515-.263.892.892,0,0,0-.4.11,1.1,1.1,0,0,0-.145.865,1.023,1.023,0,0,1-.531,1.217c-.441-.422-.934-.9-1.369-.9a.573.573,0,0,0-.158.022c-1.015.331-1,.714-.98,1.051l0,.1a3.265,3.265,0,0,1-2.73,3.7c-.02.982-.916,1.314-1.783,1.635a4.068,4.068,0,0,0-1.428.744,11.133,11.133,0,0,1-1.6,1.21,8.132,8.132,0,0,0-1.9,1.558,29.437,29.437,0,0,1-6.183,5.378,50.766,50.766,0,0,0-4.4,3.438,4.044,4.044,0,0,0-2.009-.6Z" transform="translate(0 0)" fill="#ffde27"/>
    </g>
    <g id="Illustrations_sitting-reading" data-name="Illustrations/sitting-reading" transform="translate(493.731 60.171)">
      <path id="Accent" d="M662,292c-7.635,14.928-15.7,29.46-23.847,44.116-4.312,7.758-18.219,39.849-21.81,41.075-3.867,1.32-27.559-12.612-34.359-15.341C569.9,357,558.42,352.408,545.8,349.418c-14.133-3.349-28.377-5.818-43.037-4.573-6.42.546-17.047,2.1-10.666-6.921,4.652-6.577,9.157-12.634,15.475-17.386,4.6-3.459,11.339-9.8,16.723-12.114,5.649-2.425,13.98-1.887,20.051-1.745,6.563.155,37.844,9.916,39.565-.257,3.191,2.9,5.049,1.78,8.7,3.2,4.121,1.6,6.69,4.7,10.782,6.574,2.655,1.216,7.548,6.023,10.5,6.051,3.923.039,4.979-3.21,7.8-5.608,6.312-5.374,14.716-8.911,21.565-13.58C649.289,298.944,655.031,294.658,662,292ZM593.276,174c-.536,6.815,1.3,13.147,1.258,20.159-.019,3.06-.158,6.119.771,9.067.834,2.643.251,7.39.694,10.158-7.806-2.376-22.309-5.9-30.279-2.7-7.619,3.064-8.578,17.231-8.846,24.121-.183,4.7,1.9,11.931.322,16.427-.737,2.1-.743,2.774-.7,2.963l.006.02c-.15-.077-.762-.076-2.92,1.481-2.139,1.542-4.693,2.393-6.807,4.1-3.844,3.1-4.5,6.616-6.4,11.111-1.843,4.366-6.752,8.246-12.232,8.088,4.4-7.984,10.521-15.44,7.011-24.817-2.648-7.078,1.993-15.383,5.645-22.106,1.209-2.227,14.61-19.286,8.672-20.489-3.856-.782-12.706,17.327-14.4,20.489-4.723-3.193-6.844-7.129-3.209-11.938,2.792-3.693,6.22-6.851,8.937-10.675,4.412-6.207,8.712-13.615,13.953-19.128C563.959,180.649,580.024,174.059,593.276,174Zm-36.771,80.219c.052.035.03.069.007.017Zm160.455-90.8c5.881,5.634,13.32,10.307,19,16.22,4.975,5.176,11.674,13.883,14.037,20.8-12.126,2.337-32.275,9.5-37.1,22.222C694.038,205.35,686.742,237,683,250.236c-11.037-4.776-8.836-20.676-8.69-29.96.113-7.364,4.6-16.081-6.094-16.684-7.991-.449-15.751,2.805-22.958,5.852a95.142,95.142,0,0,0-25.69,16.025L612,219.577c12.415-6.97,18.886-20.3,26.153-32.5,2.318-3.89,5.414-8.216,7.1-12.422,1.17-2.908,1.993-8.778,3.275-11.363,2.017-4.065,21.714-5.184,26.932-6.231C689.239,154.3,705.7,152.639,716.96,163.423Z" transform="translate(-162.451 -37.283)" fill="#2d2140" fill-rule="evenodd"/>
      <g id="Ink" transform="translate(67.995 33.439)">
        <path id="ink-layer" d="M435.41,174.49c3.431-.206,6.846.692,10.276.3l-8.935-9.12c-1.316,2.708-1.412,5.788-1.341,8.819Zm-81.386-62.5c-8.879.046-19.71,5.273-25.878,12.907-3.268,4.046-5.968,9.479-8.732,14.025a68.62,68.62,0,0,1-5.914,8.673c-3.281,3.906-2.342,4.8,1.355,7.74,1.17-2.57,7.374-16.309,9.974-15.692,3.951.94-3.68,15.453-4.513,17.261-2.468,5.349-6.454,12.822-4.663,18.463,2.363,7.447-1.063,11.692-4.038,18.038,3.124.106,3.432-1.322,4.509-4.445,1.383-4.014,2.892-7.368,5.816-10.143,2.265-2.149,5.969-3.054,7.033-5.648,1.316-3.208.49-9.541.6-13.11.162-5.422.174-18.24,5.271-20.649,5.341-2.524,14.944-.145,20.165,1.725-.652-4.778-2.708-7.9-2.68-13.209.031-5.558,1.336-10.517,1.7-15.936ZM285.812,200.66a126.4,126.4,0,0,1,13.826-4.714c5-1.23,5.335-2.636,8.154-7.663,2.137-3.81,4.729-6.78,4.124-11.446-.388-2.993-1.787-4.451-1.366-7.817a40.6,40.6,0,0,1,1.692-6.348c.736-2.434,2.261-5.194-1.285-5.315-1.959-.067-2.054,1.144-3.38,3.178-2.446,3.756-5.261,7.166-7.864,10.768-4.521,6.254-9.315,12.91-14.361,18.7A88.178,88.178,0,0,0,271.41,212.21c-.663,1.506-4.7,10.376-2.975,12.115,1.58,1.6,10.366-2.128,11.969-2.564,6.915-1.881,14.765-2.553,21.3-5.97,3.329-1.741,10.675-3.82,13.3-6.514,2.444-2.5,2.334-8.571.916-12.1-3.97,2.895-32.67,13.816-30.111,3.484Zm86.4-49.78a58.147,58.147,0,0,1,15.835-11.759c5.119-2.609,11.477-5.516,17.171-5.063,7.1.563,4.13,7.262,4.1,12.966-.033,7.569-2.863,18.472,4.847,22.4,2.517-10.48,7.822-35.262,20.532-21.53,3.248-10.077,14.833-13.487,22.99-15.338-1.479-5.091-5.97-9.7-9.082-13.521-3.894-4.78-6.969-10.383-10.87-15.073-7.707-9.261-21.669-6.287-31.427-3.979-3.257.77-12.7,1.737-14.277,4.541-.99,1.758-.437,6.054-1.17,8.2a67.57,67.57,0,0,1-4.122,8.444c-5.054,9.983-10.2,20.03-18.845,25.746ZM400.5,204.659c-4.576,2.058-7.942,5.5-12,8.4-4.921,3.514-10.692,6.8-15.108,11.145-1.616,1.587-2.524,4.329-4.755,4.507-1.94.155-4.9-2.486-6.617-3.41-2.885-1.553-5.642-3.905-8.542-5.289-2.383-1.137-3.438-.9-5.5-3.116-1.156,8.068-22.2.527-26.612.4-4.083-.113-9.686.454-13.486,2.377-3.621,1.833-6.452,5.867-9.552,8.616-4.249,3.769-8.3,7.581-11.432,12.8-4.292,7.153,2.183,5.129,6.5,4.7,9.857-.987,19.444,1.764,28.947,4.42a156.477,156.477,0,0,1,25.012,9.069c4.573,2.165,9.385,4.154,13.686,6.968,2.267,1.484,5.945,5.116,8.546,4.069,2.386-.96,4.763-8.975,6.21-12.177,2.809-6.215,5.764-12.325,8.664-18.479,5.478-11.625,10.9-23.152,16.039-34.993ZM344.19,358.512c2.82-1.9,7.417-1.387,10.536-2.182a64.09,64.09,0,0,0,10.427-3.89,83.592,83.592,0,0,0,9.727-5.061,29.256,29.256,0,0,0,4.631-2.982c1.059-.989,1.445-2.827,2.422-3.724,2.547-2.341,3.3-.872,3.637-5.389.37-4.906-1.978-7.685-4.9-11.356a45.062,45.062,0,0,0-9.306-8.438c-1.455-1.022-3.009-2.173-4.494-3.148-2.246-1.478-5.256-3.935-6.435-.763a3.25,3.25,0,0,1,.78,5.729c-1.217.725-3.058-.34-4.43.431-2.118,1.19-4.155,4.511-5.968,6.3-5.95,5.872-11.641,8.073-19.43,8.545-16.274.983-33.317-1.192-49.278-4.019-4.108-.728-8.209.061-12.355-.113-4.034-.169-8.241-1.2-12.206-2-7.639-1.538-15.69-2.8-23.21-5.066a145.057,145.057,0,0,1-26.758-10.862c-8.191-4.4-17.448-11.666-26.647-12.227,3.926,4.505,9.808,6.24,14.53,9.208,3.86,2.424,9.895,3.98,12.333,7.975,1.587,2.6,2.383,7.375,3.582,10.424,1.326,3.374,2.55,6.8,3.777,10.225,1.233,3.445,2.517,6.892,3.519,10.44.62,2.2.887,6.765,2.351,8.271,2.336,2.4,10.154,3.468,13.3,4.267,5.878,1.493,12.582,1.294,18.577,1.4,2.478.043,4.975.439,7.342.493,3.325.074,3.007-.6,2.96-3.983-.027-2.031.008-5.726,2.326-4.053,1.58,1.14.493,6.19.2,7.984a263,263,0,0,0,40.21,1.8c12.952-.509,25.456-2.467,38.25-4.234Zm59.761-35.6c2.335-19.652,5.181-39.632,8.365-59.03,3.219-19.6,7.088-39.025,11.441-58.553l-8.626-2.417c-.107,4.115-1.294,7.689-1.8,11.785-.7,5.653-2.034,11.143-2.834,16.777-1.519,10.711-4.333,21.191-6.812,31.635-2.527,10.648-3.371,21.618-5.693,32.32-1.914,8.816-2.891,18.528-3.96,27.591-2.592,21.989-6.285,44.02-9.1,66.019-2.636,20.626-2.9,41.671-2.749,62.489.093,12.71,1.747,25.384,1.661,38.111-.021,3.146.2,6.282.344,9.423.1,2.216-.917,8.359-.056,10.216.545,1.175,2.888,2.259,3.717,3.891,1.312,2.582,1.588,5.668,3.7,7.622,1.708-8.073.9-18.728.527-26.967-.361-7.938.34-16.143.478-24.2.27-15.812.984-31.392,1.676-47.212.758-17.348,2.914-35.119,5.02-52.338,1.915-15.656,3.193-31.59,4.7-47.161Zm-62.5-246.453-2.778-.3c.138,2.287-.274,5.99,1.1,7.183,1.042.9,3.152.607,4.416.9,4.141.949,8.94,1.742,13.051.014,1.6-.672.572-1.724,2.771-1.286,2.65.527,1.682,1.019,2.447,2.956.589,1.5.893,4.039,1.562,5.834.9,2.4,2.71,6.7,1.934,9.474-.754,2.7-3.567,3.511-4.763,6.564-.889,2.27-.679,5.57-1.141,8.07-.616,3.335-1.4,6.657-1.74,10.053-.433,4.279-.285,9.3,4.239,9.963,4.2.617,7.2-.965,10.014-4.548,5.376-6.84,11.515-16.5,14.673-25.1.369-1.005,1.277-2.683,1.151-3.759-.25-2.129-.359.026-.935-1.452-.549-1.414-1.412-2.7-1.919-4.265a94.312,94.312,0,0,1-3.848-17.507,56.4,56.4,0,0,1-.386-8.1c.019-.932.5-3.729.211-4.367s-1.8-.945-2.274-1.586c-.874-1.189-2.376-4.547-3.344-5.437-1.191-1.094-3.856-.227-4.34-2.4-.774-3.482,17.545-9.153,8.987-13.8-6.39-3.469-16.19,14.066-18.424.268-.387-2.39.35-5.634-.544-7.825-.989-2.421-3.68-3.326-5.56-4.5-2.4-1.5-4.822-3.046-7.153-4.691-1.6-1.127-3.9-4.122-5.6-4.4.67,4.064-.615,8.092-.636,12.148,3.687-1.169,6.223-1.194,9.862.885,1.733.989,8.262,6.605,4.954,9.306a38.236,38.236,0,0,0-8.534-4.559,13.45,13.45,0,0,0-3.9-1.047c-2.909-.069-2.5.288-3.592,2.859-1.053,2.477-.827,8.936-3.138,10.517-2.39,1.635-.547-.654-2.588-.125a18.517,18.517,0,0,0-3.5,1.889c1.46,1.858,4.407,3.553,5.376,5.617,1.413,3.008.922,9.23,1.144,12.521,1.849-.776,3.8-.808,5.671-1.384,1.762-.542,4.205-2.89,4.389.561.205,3.845-4.981,4.866-7.31,4.866ZM365.523,177.7c.144-3.323.3-6.645.617-9.954.213-2.222,2.013-8.667,1-10.619-1.107-2.123-4.815-2.258-6.6-2.768-3.421-.977-6.7-1.778-10.18-2.424a71.072,71.072,0,0,0-9.434-.89c-3.509-.186-4.379-1.277-5.155,3.255a80.771,80.771,0,0,0-1.541,10.926c-.107,3.425.776,6.4-2.121,8.707,6.36,0,14.643-6.637,20.447-.7,8.3,8.486-6.145,10.931-9.955,12.8,3.167,1.8,7.868,3.221,9.359,7.341,1.673,4.618-.755,6.582-4.469,6.952.349,1.78,1.686,2.936,2.085,5.077.583,3.138-1.309,2.1,1.106,4.527,3.18,3.2,9.725,5.333,13.625,7.368q1.37.718,2.772,1.348,2.191,2.286,3.236-.871c2-1.484,3.781-4.8,5.555-6.721a70.613,70.613,0,0,1,13-11.141c-1.945-.944-4.271,1.189-6.137.151-1.508-.839-.94-2.366-1.843-3.51q.543-2.237-1.147-1.636a2.385,2.385,0,0,1-1.572-.335,5.578,5.578,0,0,1-1.43-3.937c-.066-2.246,1.044-3.039,1.469-4.837q2.077-1.658-.094-3.257a8.668,8.668,0,0,1-.973-3.711c-.276-4.954,3.582-6.951,6.524-9.571-5.268-.678-5.067-7.92-1.422-11.086,3.778-3.282,11.778-1.938,16.346-1.2.95.153,3.517,1.589,4.478.674.589-.561.173-5.307.2-6.144a38.346,38.346,0,0,0,.2-6.06c-.541-3.961.605-1.966-1.827-2.076-5.789-.263-13.162,5.66-18.255,8.453-5.7,3.126-9.365,3.607-9.424,11.357-.057,7.339-1.813,14.651-2.579,21.873-.335,3.154-.574,19.54-5.5,13.493-1.909-2.345-.686-5.952-.544-8.845.193-3.98.079-8.023.2-12.014ZM47.04,423.366c2.818.586,7.409-1.31,10.483-1.509A91.858,91.858,0,0,0,73.7,419.6c4.121-1.026,8.816-1.929,11.039-6.6,1.987-4.178,2.689-9.41,3.759-13.97.568-2.421,2.034-5.931,2.034-8.436,0-3.256-.375-2.615-3.272-4.4-3.667-2.255-7.235-5.4-11.19-6.677q-1.795-.411-3.592-.806-2.325-1.581-2.628,1.553c-1.513,1.87-2.4,5.316-3.669,7.5a31.583,31.583,0,0,1-10.82,11.257,134.461,134.461,0,0,1-24.259,12.544c-4.768,1.864-9.166,4.478-13.826,6.533-3.734,1.646-8.887,2.147-11.756,5.81-3.236,4.133,1.738,5.636,4.5,8.431,2.266,2.29,2.31,2.815,5.409,1.7,2.309-.828,4.356-2.412,6.573-3.486a84.682,84.682,0,0,1,25.032-7.192ZM220.605,488.93q-4.245-1.077-8.492-2.152c2.784,6.09,8.638,15,4.436,22.051-1.57,2.633-4.183,3.384-6.516,4.721a94.594,94.594,0,0,0-8.1,5.616c-11.01,7.945-22.2,16-33.8,22.82,3.631,1.374,9.216,2.325,12.956,1.127,4.356-1.395,8.388-4.6,12.86-6a175.7,175.7,0,0,1,24.616-5.934c6.662-1.052,23.337,1.325,22.527-10.418-.769-11.149-6.451-21.785-8.141-32.806-4.149,1.08-8.107.891-12.345.97ZM389.314,310.488c3.226-18.558,5.153-37.432,8.959-55.857,1.9-9.192,3.236-18.51,5.091-27.7.863-4.278,1.515-8.6,2.355-12.866.851-4.322,2.683-8.312,3.1-12.78-3.083.894-3.8,9.17-4.73,12.283-1.714,5.712-3.584,11.2-5.787,16.669-3.5,8.692-7.217,17.078-11.167,25.505a219.559,219.559,0,0,1-13.768,25.554c-1.709,2.667-4.029,4.757-5.131,7.683-1.733,4.6-2.461,10.088-4.116,14.877,1.166.693,4.177.866,5.606,1.2a22.545,22.545,0,0,1,7.076,2.643,31.31,31.31,0,0,1,11.284,10.4,39.97,39.97,0,0,0,1.228-7.606Zm-125.4,141.6c-.053-17.873-.27-35.9-.019-53.64a141.437,141.437,0,0,1,1.021-15.129c.382-3.073,2.634-9.6,1.154-11.077-1.265-1.26-7.943-.43-9.582-.475-3.179-.086-6.347-.252-9.532-.532,0,6.624,2.208,14.146,3.234,20.7.956,6.112,1.742,12.258,2.532,18.4,1.708,13.3,2.194,26.777,4.05,40.109,1.68,12.088,3.9,24.126,5.12,36.213.671,6.635,2.028,12.894,3.083,19.525.551,3.458,2.56,17.7,5.09,19.1.535-5.109-1.65-11.278-2.042-16.444-.4-5.333-.716-10.7-1.454-16.064-.867-6.294-1.3-12.744-1.636-19.116-.2-3.9-.265-7.786-.552-11.682-.208-2.827-1.121-7.112-.465-9.884Zm79.47-239c.105-1.946-4.193-1.868-4.993-4.1-1.624-4.543,2.077-3.725,4.353-4.2-.811-2.526-16-1.606-12.465-8.426,2.455-4.732,11.767,2.51,14.255-1.986,1.636-2.953-2.816-3.36-4.581-3.656-2.656-.446-8.915,1-8.709-3.045.259-5.076,12.426-8.58,15.838-10.071-.378-3.476-15.021,1.465-17.14,2.874a21.532,21.532,0,0,0-9.175,15.271c-.82,7.4,2.382,13.227,8.687,15.043,2.629.757,4.573.841,7.005,1.98,1.6.748,6.781,2.615,7.879.726l-.956-.411Zm85.96-46.025c.242-3.16,2.512-9.108-.1-11.185-3.659-2.906-5.176,1.882-6,4.758-1.014,3.512-5.276,12.107-1.549,14.3.867.509,4.975-.083,5.7-.419q3.028.925,1.956-2.66Zm-89.3,255.182c-.23-8.637,3.069-19.019,4.939-27.478,2.12-9.584,3.236-19.359,5.482-28.838-2.5.353-5.019.641-7.487,1.228-3.367.8-3.427.676-3.186,4.547.361,5.813-.112,11.513-.368,17.325-.513,11.635.737,23.463-.094,35.025q1.112.331.714-1.808Zm93.225-226.344a76.434,76.434,0,0,1,23.2,8.5c4.058,2.226,8.527,4.618,13.062,5.507,5.038.988,10.381.524,15.526.906,1.814.134,6.581,1.167,8.35-.083,1.752-1.239,1.614-3.338,1.7-5.84.213-6.436-2.273-12.738-4.508-18.513-1.917-4.954-3.367-8.737-6.342-13-3.821-5.474-7.148-11.38-10.726-17.093-2.7-4.306-5.424-8.551-8.174-12.852-1.967-3.08-1.874-4.139-4.839-3.795-2.919.34-5.859,2.362-8.609,3.434-4.082,1.591-9.024,2.465-12.746,5.009-2.406,1.645-2.514,1.948-2.486,4.819a16.2,16.2,0,0,0,2.127,8.028c2.835,4.343,7.535,6.642,11.568,8.808a39.956,39.956,0,0,1,6.427,4.758c2.238,1.864,6.753,2.961,8.465,5.085,4.986,6.186-4.09,4.963-6.626,4.776-5.472-.4-10.915-.342-16.428-.347-6.017,0-11.986-.333-17.919-.1a11.712,11.712,0,0,1-9.712-5.374c-1.09-1.668-1.514-3.244-2.94-4.975-1.868-2.266-3.492-4.653-5.765-6.406-3.718-2.869-10.474-4.492-14.9-3.421,1.585.259,9.038,3.233,5.757,6.972-.4.455-5.194.753-6.236,1.314-1.881,1.012-4.251,2.483-5.354,4.621,3.212-.631,15.124-1.361,9.047,5.862-1.491,1.773-5.774,3.542-2.13,5.428.837.433,2.512-.18,3.59.211,1.6.581,2.911,2.136,4.412,2.964,4.256,2.353,10.123,3.8,14.565,3.289,6.142-.714,12.543.571,18.644,1.514ZM270.384,413.534c.209,10.376-.11,20.813.079,31.237.2,11.132,1.42,22.041,2,33.061.521,9.876,1.659,19.565,2.583,29.394.532,5.661,1.145,11.075,1.962,16.694.766,5.258.9,9.891-4.467,11.3-10.253,2.7-11.847-14.585-13.828-21.869a252.6,252.6,0,0,1-6.321-33.555c-2.728-20.989-6.357-41.686-7.773-62.853-.872-13.034-2.136-25.935-2.853-38.958-.141-2.552.415-6.484-1.5-7.62-1.151-.682-4.317-.688-5.769-1.183a79.949,79.949,0,0,1-11.721-5.516c2.8,17.164,3.726,34.242,5.827,51.556,1.114,9.187,3.247,18.706,5.1,27.749,1.915,9.37,2.341,19.458,4.551,28.624.973,4.04,1.8,5.686.385,9.833-1.733,5.09-.583,6.308,1.59,11.307,4,9.2,7.048,20.051,6.371,30.418-.553,8.468-6.012,12.9-12.773,15.185-8.458,2.857-17.315,2.519-25.825,5.764-7.414,2.826-14.946,4.914-22.146,8.645-2.9,1.5-5.661,3.289-8.885,3.565-4.421.377-7.4-2.63-11.578-3.257-2.61-.39-6.431,1.069-7.934-2.138-1.192-2.542.157-8.089,1.653-10.136,4.2-5.751,12.62-10.761,18.288-14.155a152.77,152.77,0,0,0,18.907-13.854c3.669-3.061,7.41-6,11.077-9.063,2.425-2.03,3.347-2.042,3.1-5.266-.2-2.571-1.186-5.064-1.359-7.7-.132-2.017.471-4.765-.343-6.081-.6-.971-2.843-1.655-3.726-2.39-3.228-2.682-3.961-6-5.427-10.08-3.33-9.266-7.155-18.272-10.37-27.613-6.9-20.055-11.116-41.144-16.839-61.609-5.847-20.908-11.075-42.857-14.3-64.548-4.309,1.537-8.375,8.337-11.807,11.7-4.636,4.548-9.386,8.945-13.932,13.617-7.452,7.659-15,15.107-21.155,24.279-2.967,4.418-5.4,9.172-8.082,13.813-1.552,2.681-3,5.716-4.679,8.267-.27.409-.277,1.25-.568,1.6-.64.766-1.862-.254-2.272.25-2.532,3.1-2.5,11.915-3.288,16.009-1.087,5.643-2.308,12.132-6.067,16.021-5.807,6.007-16.517,6.938-23.866,7.25-9.432.4-18.581,3.481-27.53,6.79-4.174,1.543-8.239,3.348-12.428,4.846-2.41.863-5.159,2.583-7.732,2.252-3.1-.4-5.554-3.459-7.827-5.734-3.637-3.639-7-7.226-6.886-13.2a16.991,16.991,0,0,1,7.654-14.229c8.9-6.07,18.846-9.96,28.435-14.154a81.1,81.1,0,0,0,10.334-5.552c4.964-3.06,10.679-5.557,15.084-9.6,1.3-1.192,6.072-4.844,6.479-6.727.053-.245-1.14-3.121-1.145-3.577a10.525,10.525,0,0,1,.945-3.448c2.294-6.322,6.143-12.409,9.085-18.371,5.388-10.919,10.8-21.9,17.044-32.166a467.926,467.926,0,0,1,41.554-58.4c7.363-8.713,13.726-18.6,21.192-27.189a40.873,40.873,0,0,1,9.726-8.384c4.063-2.463,8.624-2.945,13.281-3.7,11.286-1.821,20.711,2.092,31.307,5.5,10.017,3.219,20.045,5.934,30.118,9.286,11.062,3.682,22.011,7.213,33.039,11.225,5.892,2.144,11.953,3.46,17.873,5.517,2.851.989,13.627,7.192,16,5.155a126.319,126.319,0,0,0-23.167-10.356c-2.359-.731-3.866.078-3.778-3.1.048-1.731,1.709-4.069,2.306-5.494,1.431-3.412,3.052-6.747,4.452-10.169-5.078,1.69-18.727,7.539-22.554,1.492-4-6.329-.661-18.737,1.848-24.934,6.552-16.176,17.694-29.675,28.552-41.869,2.349-2.636,7.411-6.08,8.663-9.437.381-1.021-.448-2.521.411-3.847.51-.789,2.561-1.328,3.381-2.178,2.985-3.1,5.367-9.615,7.43-13.676,2.16-4.253,4.107-8.858,6.822-12.674,4.44-6.239,9.025-12.853,16.216-14.313,3.526-.715,7.272-.334,10.652-1.761,4.088-1.727,7.972-4.446,12.1-6.234-1.024-2.468-1.854-6.391-3.841-6.661-1.913-.26-4.718,1.667-6.908,1.653a39.525,39.525,0,0,1-9.012-1.334c-3.415-.792-4.54-.648-5.785-4.99-1.306-4.549-.977-9.832-.966-14.556.005-2.309.4-5.175.228-7.44-.252-3.414-.818-3.545-3.1-5.717-2.853-2.713-6.37-6.3-2.875-11.017,1.888-2.547,5.769-.566,7.442-3.3,1.7-2.787,1.621-9.79,2.14-13.064-5.252,3.026-3.326-8.286-3.327-11.008,0-3.961-2.266-11.083.995-14.378,1.515-1.53,2.64-.264,4.372-1.143,1.976-1,3.221-3.635,5.324-4.655,4.179-2.028,8.447.414,12.738.011,4.922-.462,9.757-1.354,14.706-.428,2.345.437,3.332,1.481,5.316,2.651,1.908,1.126,3.843,1.433,5.916,2.158,1.844.645,3.461.971,4.707,2.854.985,1.49.584,4,1.579,5.281.981,1.266,2.922,1.082,4.091,2.585,1.123,1.442,1.794,3.827,2.377,5.622.789,2.418.881,3.326,2.269,5.261,1.21,1.689,2.952,3.047,3.962,4.973,2.379,4.541,2.44,11.107,1.68,16.215-.258,1.739-2.409,6.235-2.072,7.716.32,1.409,2.338,1.038,3.251,1.929.789.77,1.484,4.2,2.106,4.41,1.345.452,3-2.66,4.022-3.127,1.77-.812,2.511-1.644,3.492,1.415.727,2.27-.286,5.35-.819,7.517-.678,2.758-1.428,6.079-3.225,8.164-2.113,2.452-3.8,1.112-6.136,2.432-3.494,1.979-2.463,8.166-6.763,9.934-4.1,1.685-8.611-3.616-11.71-6.053.642,5.916,3.058,11.616,1.9,17.678,9.423-4.327,18.743-10.468,29.013-11.821,5.237-.69,10.526-1.508,15.47,1.04,5.786,2.982,9.331,9.56,13.247,15.026,7.36,10.273,14.912,20.257,21.977,30.861,6.479,9.726,11.942,21,19.075,30.1,7.232,9.236,12.689,24.22,11.9,37.009-.071,1.154-.834,3.777-.715,5.022.093.954.833,2.163.821,2.932a5.9,5.9,0,0,1-2.874,5.513c-3.648,2.49-9.085,3.751-13.208,4.369a61.574,61.574,0,0,1-17.668.033c-5.653-.906-10.621-4.614-15.82-6.855a95.328,95.328,0,0,0-13.931-4.449c-2.643-.692-5.569-2.609-7.2-.754-1.5,1.7-1.811,10.45-2.16,12.776-3.791,25.206-8.3,49.558-12.286,74.636-4.522,28.425-7.614,56.839-10.759,85.5-2.858,26.058-3.793,52.41-4.432,78.444-.305,12.418-.349,24.7-.285,37.133.036,6.96,3,30.192-5.8,31.081-5.173.524-9.311-8.169-10.7-12.909a95.292,95.292,0,0,1-3.5-22.275c-.672-15.147-1.552-30.305-2.074-45.458a476.376,476.376,0,0,1,1.3-49.5c1.159-16.472,4.079-32.7,4.975-49.2-2.687,4.494-3.547,5.338-8.022,7.3-4.683,2.049-9.188,4.473-13.913,6.383-1.608.65-4.116,1.057-5.434,2.121-2.432,1.963-.834-.264-1.611,3.556a94.782,94.782,0,0,0-1.206,13.176c-1.035,19.684-5.688,39.228-7.834,58.808-.518,4.727.221,24.8-6.72,18.471-5.346-4.871-5.24-20.17-6-27.336-1.012-9.552-.449-19.374-.288-28.984.182-10.945.339-22.425,2.567-33.112-3.987-.8-9.532,1.379-13.545,1.745-3.475.317-6.937.519-10.392.741-8.24.53-16.727.954-25.106.764-1.525-.035-11.491-1.67-12.764-.352-.414.428-.54,6.317-.617,7.036-.293,2.706-.691,5.409-.988,8.1a192.555,192.555,0,0,0-1.53,26.437Z" transform="translate(0 -0.396)" fill="#2d2140" fill-rule="evenodd"/>
        <path id="ink-layer-2" data-name="ink-layer" d="M620.551,626.676c9.327,3.645,19.227,4.968,28.633,8.289,8.409,2.969,16.218,6.96,24.5,9.977.485-3.841.742-10.346-.677-13.966-2.008-5.126-7.293-5.252-12.5-7.078-12.665-4.444-25.989-5.38-38.562-10.572,2.153,4.144,1.191,9.631-1.395,13.35m161.01-13.4c-20.144.591-39.4,5.279-59.249,8.178-9.661,1.41-19.331,2.668-29,3.985-3.721.505-10.5-.091-13.208,3.131-2.242,2.669.215,11.777-.781,15.688,4.072.3,11.3-3.5,15.72-4.133,6.881-.978,13.672-2.349,20.625-2.785,11.012-.694,21.832-1.284,32.825-2.51,11.179-1.246,22-3.562,33.264-4.408,5.478-.412,7.681.615,8-5.168.127-2.261.437-6.045-.2-8.275q1.52-4.112-2.7-3.993a15.879,15.879,0,0,0-5.306.29M742.6,594.815c5.448-.51,10.918-1.244,16.379-1.55,1.107-.063,6.724.275,7.642-.754,1.3-1.456-.148-6.784-.387-8.432-.81-5.605-1.7-8.865-7.819-8.877-5.16-.012-10.5,1.079-15.642,1.582-23.333,2.287-46.549,3.253-69.624,7.6,1.4,5.981,3,12.153,1.32,18.27,11.07.571,23.223-1.559,34.041-3.744a261.444,261.444,0,0,1,34.09-4.089M705.67,538.5c-8.336.038-17.147,3.709-25.373,2.891-.123,1.53,2.51.26,3.237,1.692q2.33.006,1.62,1.523a1.085,1.085,0,0,1-1.06,1.212c-.363.033-.726.063-1.087.094q-2.386.077-.781,3.221c-.459,2.6.23,5.9.33,8.5,14.783-2.012,29.145-4.1,44.033-5,7.028-.424,14.051-.422,21.071-1,7.724-.636,16.154.728,23.7-.718,4.036-.773,3.613-.719,3.32-5.969-.18-3.189-.113-6.975-2.709-9.3-4.336-3.885-14.211-1.64-19.4-1.5A354.549,354.549,0,0,0,705.67,538.5m8.534,74.961c22.333-2.028,44.5-6.47,66.957-6.47-1.588-1.587-5.047-2-7.023-2.862-2.254-.986-4.38-3.087-6.583-3.949-4.419-1.73-8.916.674-13.455,1.713-10.949,2.507-22.183,2.593-33.15,5.052a321.317,321.317,0,0,1-34.369,6.177c-5.5.615-11.4,1.862-16.83.41-.441-.316-.884-.631-1.325-.946q-.712-3.033-3.955-1.62c-2.746-.523-6.242.152-9.007.221-.112,1.1,10.1,4.567,12.047,5.424,4.692,2.066,7.873,3.578,12.884,2.693,11.283-1.993,22.382-4.372,33.808-5.844m-78.561-65.293c.873,3.4,4.537,1.855,7.692,2.229,4.235.5,8.448,1.963,12.55,3.064,7.449,2,14.9,3.976,22.318,6.092-.293-3,.37-9.815-1.213-12.473-1.661-2.786-9.537-4.007-13.2-4.857-9.244-2.139-19.119-.922-28.51-.471q.249,3.2.367,6.416m88.8,21.285c8.771-.743,17.552-1.32,26.348-1.63,10.056-.352,2.747-1.959,2.535-8.092-13.218,2.109-26.552,2.525-39.729,4.327-10.916,1.5-23.921,5.4-35.056,3.3-5.252-.988-10.614-1.369-16.2-1.928-5.271-.527-10.244-2.983-15.45-3.592-5.844-.685-11.815,2.6-17.63,3.468-2.465.368-3.037,2.039-4.2-.927-1.207-3.077,2.25-5.592,3.611-7.431,1.589-2.149.929,1.34,1.812-2.016.247-.94-.423-3.3-.546-4.317-.311-2.561-1.116-5.34-1.242-7.9-.115-2.348-.136-5.931,2.413-7.3,1.556-.836,2.658.383,4.014.147a105.741,105.741,0,0,1,33.77-.215c11.637,1.925,21.653-3.172,33.124-5.24,13.455-2.424,27.052-2.788,40.624-3.812,11.6-.875,32.807-5.417,37.228,9.405,1.252,4.2,3.076,15.761-.293,19.335-4.419,4.693-14.653,3.2-20.368,4.415.855,2.432,3.4,4.085,2.52,6.981,8.009.378,9.425,7.943,10.679,15.006,1.3,7.307-1.234,10.211,5.749,14.016,9.733,5.3,20.043,10.657,19.852,23.287-.1,6.35-.806,15.926-7.326,19.22-6.378,3.223-16.763,2.678-23.793,3.848-13.612,2.267-27.272,4.926-40.967,6.287-14.583,1.45-29.407,2.639-44.014,3.287-7.958.355-14.834,1.557-22.52-1.122-7.557-2.633-14.949-4.555-22.746-6.511-7.7-1.928-31.26-4.525-24.394-17.689,1.1-2.106,4.854-3.781,5.46-5.773.978-3.213-2.326-5.72-2.188-8.623.252-5.311,6.245-5.978,10.383-5.978-7.092-4.436,2.406-9.688,2.349-13.454-.1-6.635-8.352-10.942-8.819-16.5-1.135-13.536,41.8.558,48.413,3.487-5.087,7.543-28.687,1.016-35.716-.128a29.335,29.335,0,0,1,2.153,7.362c.225,2.1-.578,4.5.157,6.618,1.16,3.345,1.12,2.7,5.227,3.616,3.038.674,6.043,1.454,9.071,2.168,4.652,1.1,11.969,4.042,16.577,3.882,4.043-.141,3.244,1.113,3.985-3.377.4-2.413-.281-4.978-.688-7.342-.849-4.954-2.09-9.643,2.236-13.2,4.126-3.39,12.821-5,17.881-6.2,11.23-2.653,24.192-3.3,35.715-3.166" transform="translate(-241.727 -148.005)" fill="#2d2140" fill-rule="evenodd"/>
        <path id="ink-layer-3" data-name="ink-layer" d="M777.88,484.893a171.42,171.42,0,0,0-36.929-1.928q1,4.581,2.007,9.158c11.561-2.977,23.289-4.722,34.922-7.231ZM678.7,508.582c-4.891-.358-1.489,1.829-.281,5.031,1.485,3.933,1.166,8.906,1.507,13.046,14.311-5.457,30.962-8.651,46.178-10.488,7.216-.87,14.537-1.12,21.793-1.492,2.145-.11,9.891.788,11.46-.655,1.165-1.073.348-6.994-.772-8.3-6.09-7.1-29.633-.969-38.149-.333-13.965,1.043-27.674,3.538-41.736,3.192Zm20.326-19.025c12.672,1.217,24.907,1.1,37.58,3-.961-8.055.188-10.111-8.95-10.538-8.143-.38-16.261-.688-24.366-.684-18.227.01-36.41-.338-54.657-.338v8.186c16.875-1.728,33.484,1.393,50.393.375Zm-60.935,30.1c8-.034,15.555,2.983,23.554,3.766,4.787.468,3.283,1.062,6.6,3.465,5.172,3.744,6.662,1.75,6.013-3.338-2.2-17.209-23.987-13.35-36.543-14.307.825,4.1-1.072,7.584-3.866,10.414Zm86.442-22.1c-11.5.187-23.02.84-34.442.6-5.113-.107-11.737-1.12-16.748-.249-3.671.638-6.741,2.508-10.767,3.2,5.914,3.185,8.912,1.033,15.13.308s12.517-.709,18.754-1.086c10.244-.621,21.162-3.074,31.255-2.407q.276-2.133-3.181-.371ZM633.3,534.837c-5.278-.011,1.983-6.014,2.937-6.609-5.843,0-7.258-3.5-5.565-9.134,1.6-5.3,2.776-3.68-1.238-8.1-3.021-3.325-3.478-5.775.083-9.493,3.624-3.782,10.964-2.712,14.175-5.834,5.467-5.313-1.588-15.9,5.987-19.968,5.12-2.75,13.374-2.409,19.028-2.991,5.464-.561,11.12-.67,16.621-.744,11.99-.164,24.445,1.847,36.383,2.953,4.352.4,9.245,2.161,13.533,2.165,4.372.005,8.953-.97,13.467-.858,5.249.132,10.305-.255,15.718.607,4.147.661,13.83,1.008,17,4.091,10.562,10.274-14.485,14.992-18.795,16.146,4.386,4.805,4.2,11.157,3.543,17.206,2.088,0,5.687-.908,6.768,1.433,1.342,2.908-3.626,3.663-4.8,4-6.758,1.952-14.666,1.417-21.631,2.126-13.923,1.417-27.678,2.234-41.457,4.872-6.715,1.285-13.389,2.876-20.1,4.128q-1.738.325-3.493.521-2.694-.231-1.743,3.386c-1.863.91-8.807-1.357-10.954-1.7-12.293-1.994-23.289-1.166-35.467,1.8Z" transform="translate(-241.259 -109.061)" fill="#2d2140" fill-rule="evenodd"/>
        <path id="ink-layer-4" data-name="ink-layer" d="M881.519,654.2c-7.929,6.239-15.3,12.127-23.885,17.548,6.069-.189,26.255-9.869,23.885-17.548m-3.1-10.169c-4.327-3.718-8.625-3.338-13.982-4.465-4.932-1.038-9.725-2.825-14.647-4.015-3.863-.933-7.686-2.2-11.535-3.077-5.435-1.246-5.971.125-10.97,2.973-17.726,10.1-37.563,17.052-56.234,25.251,5.482,4.827,17.814,5.034,24.666,6.574a112.283,112.283,0,0,1,14.554,4.435c4.461,1.657,11.649,5.466,16.354,5.593,3.972.108,7.2-3.8,10.62-5.906,4.5-2.77,8.975-5.492,13.508-8.193,9.593-5.716,18.562-12.72,27.666-19.17m-80.11,40.921c-2.046-1.969-8.206-1.882-10.772-2.483-5.054-1.181-10.034-2.408-15.155-3.295-8.311-1.438-21.441-2.081-22.343-12.864-.752-8.961,10.075-11.087,16.408-14.123,9.523-4.567,19.239-8.781,29-12.809,9.155-3.775,18.444-6.967,27.766-10.229,1.818-.636,3.294-.549,4.778-2,1.171-1.148.81-3.378,2.093-4.577,2.939-2.748,6.751-1.3,10.282-.6a146.02,146.02,0,0,1,23.99,6.666c7.945,3.083,15.051,3.727,16.959,12.734,4.062-1.906,7.118-2.183,6.632,3.418-.142,1.646-1.337,3.435-1.624,5.132-.422,2.5.318,5.14-.1,7.648-1.52,9.121-13.818,15.877-21.439,19.459-9.4,4.416-21.522,10.94-32.014,11.8-11.18.919-23.364-3.471-34.463-3.877" transform="translate(-241.727 -148.005)" fill="#2d2140" fill-rule="evenodd"/>
        <path id="ink-layer-5" data-name="ink-layer" d="M656,533.634l-10,.063a28.14,28.14,0,0,1,10-.063" transform="translate(-177.854 -112.26)" fill="#2d2140" fill-rule="evenodd"/>
        <path id="ink-layer-6" data-name="ink-layer" d="M461,180.957l-3,5c.341-2.148,1.1-3.989,3-5" transform="translate(-125.098 -38.549)" fill="#2d2140" fill-rule="evenodd"/>
        <path id="ink-layer-7" data-name="ink-layer" d="M656,581.431q3.006.027,6,.053c-2.008-.016-4-.034-6-.053" transform="translate(-179.788 -149.694)" fill="#2d2140" fill-rule="evenodd"/>
        <path id="ink-layer-8" data-name="ink-layer" d="M702,472.647l-7-.379,7,.379" transform="translate(-190.693 -99.449)" fill="#2d2140" fill-rule="evenodd"/>
        <path id="ink-layer-9" data-name="ink-layer" d="M662,533.684l-6-.056a10.822,10.822,0,0,1,6,.056" transform="translate(-179.788 -112.258)" fill="#2d2140" fill-rule="evenodd"/>
        <path id="ink-layer-10" data-name="ink-layer" d="M741.589,249.957q-.084-3-.169-6,.087,3,.169,6" transform="translate(-241.227 -51.935)" fill="#2d2140" fill-rule="evenodd"/>
        <path id="ink-layer-11" data-name="ink-layer" d="M401.566,551.957q-.061-2.5-.123-5,.063,2.5.123,5" transform="translate(-109.293 -115.887)" fill="#2d2140" fill-rule="evenodd"/>
        <path id="ink-layer-12" data-name="ink-layer" d="M456,470.455q2.007,0,4,.005c-1.339,0-2.67,0-4-.005" transform="translate(-124.692 -99.016)" fill="#2d2140" fill-rule="evenodd"/>
        <path id="ink-layer-13" data-name="ink-layer" d="M635,111.276l-5,.362,5-.362" transform="translate(-172.467 1.134)" fill="#2d2140" fill-rule="evenodd"/>
        <path id="ink-layer-14" data-name="ink-layer" d="M761,476.477l-6-.039,6,.039" transform="translate(-241.29 -100.276)" fill="#2d2140" fill-rule="evenodd"/>
        <path id="ink-layer-15" data-name="ink-layer" d="M592.579,599.957c-.05-1.335-.1-2.672-.149-4q.074,2,.149,4" transform="translate(-161.294 -148.005)" fill="#2d2140" fill-rule="evenodd"/>
        <path id="ink-layer-16" data-name="ink-layer" d="M594.559,548.957q-.054-2-.108-4,.055,2,.108,4" transform="translate(-161.837 -115.3)" fill="#2d2140" fill-rule="evenodd"/>
        <path id="ink-layer-17" data-name="ink-layer" d="M560.433,571.957q.072,2,.144,4c-.048-1.337-.1-2.667-.144-4" transform="translate(-152.582 -135.653)" fill="#2d2140" fill-rule="evenodd"/>
        <path id="ink-layer-18" data-name="ink-layer" d="M464,469.478l3-.041-3,.041" transform="translate(-126.736 -98.808)" fill="#2d2140" fill-rule="evenodd"/>
        <path id="ink-layer-19" data-name="ink-layer" d="M754,521.522l3-.13-3,.13" transform="translate(-241.278 -109.723)" fill="#2d2140" fill-rule="evenodd"/>
        <path id="ink-layer-20" data-name="ink-layer" d="M562.419,603.957c.057,1.335.114,2.671.171,4-.057-1.339-.114-2.669-.171-4" transform="translate(-153.127 -148.005)" fill="#2d2140" fill-rule="evenodd"/>
        <path id="ink-layer-21" data-name="ink-layer" d="M669.606,596.957q-.1,2-.2,4,.1-2,.2-4" transform="translate(-182.262 -148.005)" fill="#2d2140" fill-rule="evenodd"/>
        <path id="ink-layer-22" data-name="ink-layer" d="M554.349,1.1l-4.24-.539c1.4.324,2.936-.877,4.24.539" transform="translate(-150.465 -0.396)" fill="#2d2140" fill-rule="evenodd"/>
        <path id="ink-layer-23" data-name="ink-layer" d="M493.562,513.957q-.057,2-.115,4,.055-2.007.115-4" transform="translate(-134.34 -108.759)" fill="#2d2140" fill-rule="evenodd"/>
        <path id="ink-layer-24" data-name="ink-layer" d="M407.608,635.957q-.1-2-.206-4,.1,2,.206,4" transform="translate(-110.926 -148.005)" fill="#2d2140" fill-rule="evenodd"/>
        <path id="ink-layer-25" data-name="ink-layer" d="M731,523.488c1.005-.021,2.007-.043,3-.062-1.006.022-2,.042-3,.062" transform="translate(-216.554 -110.139)" fill="#2d2140" fill-rule="evenodd"/>
        <path id="ink-layer-26" data-name="ink-layer" d="M391.494,280.957c.008,1.336.015,2.671.021,4q-.012-2.005-.021-4" transform="translate(-106.572 -59.595)" fill="#2d2140" fill-rule="evenodd"/>
        <path id="ink-layer-27" data-name="ink-layer" d="M370.513,580.957c0,1.335-.009,2.672-.016,4q.006-2.005.016-4" transform="translate(-100.856 -136.522)" fill="#2d2140" fill-rule="evenodd"/>
        <path id="ink-layer-28" data-name="ink-layer" d="M619.748,572.957c-.036,1.335-.071,2.671-.109,4a4.878,4.878,0,0,1,.109-4" transform="translate(-168.663 -135.75)" fill="#2d2140" fill-rule="evenodd"/>
        <path id="ink-layer-29" data-name="ink-layer" d="M433,471.457h0" transform="translate(-118.269 -99.226)" fill="#2d2140" fill-rule="evenodd"/>
        <path id="ink-layer-30" data-name="ink-layer" d="M593.521,566.957q-.017-2-.032-4c.011,1.338.021,2.668.032,4" transform="translate(-161.561 -119.098)" fill="#2d2140" fill-rule="evenodd"/>
        <path id="ink-layer-31" data-name="ink-layer" d="M798,685.416l3,.083-3-.083" transform="translate(-241.727 -148.005)" fill="#2d2140" fill-rule="evenodd"/>
        <path id="ink-layer-32" data-name="ink-layer" d="M762,558.475l2-.035-2,.035" transform="translate(-241.727 -117.481)" fill="#2d2140" fill-rule="evenodd"/>
        <path id="ink-layer-33" data-name="ink-layer" d="M737,561.459l2,0-2,0" transform="translate(-241.217 -118.108)" fill="#2d2140" fill-rule="evenodd"/>
        <path id="ink-layer-34" data-name="ink-layer" d="M347.565,567.957q-.06-1.5-.12-3,.061,1.5.12,3" transform="translate(-94.592 -134.903)" fill="#2d2140" fill-rule="evenodd"/>
        <path id="ink-layer-35" data-name="ink-layer" d="M757,567.2c-.868.879-1.986.36-3,.416l3-.416" transform="translate(-241.278 -134.932)" fill="#2d2140" fill-rule="evenodd"/>
        <path id="ink-layer-36" data-name="ink-layer" d="M638,535.2a4.373,4.373,0,0,1-4,.043l4-.043" transform="translate(-173.365 -112.681)" fill="#2d2140" fill-rule="evenodd"/>
        <path id="ink-layer-37" data-name="ink-layer" d="M725,569.474l-4-.034,4,.034" transform="translate(-215.048 -135.111)" fill="#2d2140" fill-rule="evenodd"/>
        <path id="ink-layer-38" data-name="ink-layer" d="M669,534.639l-4-.363,4,.363" transform="translate(-181.842 -112.463)" fill="#2d2140" fill-rule="evenodd"/>
        <path id="ink-layer-39" data-name="ink-layer" d="M363.544,529.957q-.037,1.5-.079,3,.037-1.506.079-3" transform="translate(-98.949 -111.975)" fill="#2d2140" fill-rule="evenodd"/>
        <path id="ink-layer-40" data-name="ink-layer" d="M593.428,583.957c.052-1,.1-2,.154-3-.051,1-.1,2-.154,3" transform="translate(-161.567 -136.444)" fill="#2d2140" fill-rule="evenodd"/>
        <path id="ink-layer-41" data-name="ink-layer" d="M731,526.289l-4,.336,4-.336" transform="translate(-216.03 -110.783)" fill="#2d2140" fill-rule="evenodd"/>
        <path id="ink-layer-42" data-name="ink-layer" d="M401.546,522.957c-.027-1-.055-2-.083-3,.027,1,.056,2,.083,3" transform="translate(-109.294 -109.868)" fill="#2d2140" fill-rule="evenodd"/>
        <path id="ink-layer-43" data-name="ink-layer" d="M568.623,445.957q-.119,1.5-.236,3,.118-1.5.236-3" transform="translate(-154.763 -94.276)" fill="#2d2140" fill-rule="evenodd"/>
        <path id="ink-layer-44" data-name="ink-layer" d="M751,476.218a4.334,4.334,0,0,1-4-.007l4,.007" transform="translate(-241.257 -100.293)" fill="#2d2140" fill-rule="evenodd"/>
        <path id="ink-layer-45" data-name="ink-layer" d="M592.593,614.957q-.09-1.5-.177-3c.059,1,.117,2,.177,3" transform="translate(-161.296 -148.005)" fill="#2d2140" fill-rule="evenodd"/>
        <path id="ink-layer-46" data-name="ink-layer" d="M592.568,622.957q-.063-1.5-.126-3,.065,1.5.126,3" transform="translate(-161.293 -148.005)" fill="#2d2140" fill-rule="evenodd"/>
        <path id="ink-layer-47" data-name="ink-layer" d="M403.484,490.957c.015-1,.028-2,.042-3-.015,1-.028,2-.042,3" transform="translate(-109.839 -103.126)" fill="#2d2140" fill-rule="evenodd"/>
        <path id="ink-layer-48" data-name="ink-layer" d="M688,650.485c.669-.019,1.339-.038,2-.055-.673.02-1.336.037-2,.055" transform="translate(-187.707 -148.005)" fill="#2d2140" fill-rule="evenodd"/>
        <path id="ink-layer-49" data-name="ink-layer" d="M365.586,658.957q-.081-1.5-.162-3,.082,1.5.162,3" transform="translate(-99.491 -148.005)" fill="#2d2140" fill-rule="evenodd"/>
        <path id="ink-layer-50" data-name="ink-layer" d="M582,667.437c.67.014,1.34.026,2,.041l-2-.041" transform="translate(-158.787 -148.005)" fill="#2d2140" fill-rule="evenodd"/>
        <path id="ink-layer-51" data-name="ink-layer" d="M727,475.609l-4-.3,4,.3" transform="translate(-215.375 -100.076)" fill="#2d2140" fill-rule="evenodd"/>
        <path id="ink-layer-52" data-name="ink-layer" d="M734,476.665l-3-.415Z" transform="translate(-216.554 -100.29)" fill="#2d2140" fill-rule="evenodd"/>
        <path id="ink-layer-53" data-name="ink-layer" d="M582.421,581.957q.086-4.5.168-9-.086,4.5-.168,9" transform="translate(-158.573 -136.135)" fill="#2d2140" fill-rule="evenodd"/>
        <path id="ink-layer-54" data-name="ink-layer" d="M504.453,471.957q.051,3.5.1,7-.051-3.506-.1-7" transform="translate(-137.335 -100.325)" fill="#2d2140" fill-rule="evenodd"/>
        <path id="ink-layer-55" data-name="ink-layer" d="M332,618.426c-1.669.02-3.341.04-5,.062l5-.062" transform="translate(-89.519 -148.005)" fill="#2d2140" fill-rule="evenodd"/>
        <path id="ink-layer-56" data-name="ink-layer" d="M469,419.5c-1.671-.026-3.341-.053-5-.077,1.675.027,3.338.052,5,.077" transform="translate(-127.023 -88.318)" fill="#2d2140" fill-rule="evenodd"/>
        <path id="ink-layer-57" data-name="ink-layer" d="M426,458.46l5-.005-5,.005" transform="translate(-116.621 -96.499)" fill="#2d2140" fill-rule="evenodd"/>
        <path id="ink-layer-58" data-name="ink-layer" d="M448,418.424l-4,.066,4-.066" transform="translate(-121.411 -88.108)" fill="#2d2140" fill-rule="evenodd"/>
        <path id="ink-layer-59" data-name="ink-layer" d="M340,618.468l-4-.021,4,.021" transform="translate(-91.879 -148.005)" fill="#2d2140" fill-rule="evenodd"/>
        <path id="ink-layer-60" data-name="ink-layer" d="M520,107.631l5-.347-5,.347" transform="translate(-142.354 -0.396)" fill="#2d2140" fill-rule="evenodd"/>
        <path id="ink-layer-61" data-name="ink-layer" d="M542.412,224.957q.093-2.5.186-5-.094,2.5-.186,5" transform="translate(-147.683 -46.79)" fill="#2d2140" fill-rule="evenodd"/>
        <path id="ink-layer-62" data-name="ink-layer" d="M502,240.456l-3,0,3,0" transform="translate(-136.296 -50.761)" fill="#2d2140" fill-rule="evenodd"/>
        <path id="ink-layer-63" data-name="ink-layer" d="M417,415.441l-3,.033c1.007-.01,2-.021,3-.033" transform="translate(-113.08 -87.478)" fill="#2d2140" fill-rule="evenodd"/>
        <path id="ink-layer-64" data-name="ink-layer" d="M394,456.295l4,.325-4-.325" transform="translate(-107.739 -96.089)" fill="#2d2140" fill-rule="evenodd"/>
        <path id="ink-layer-65" data-name="ink-layer" d="M391.473,506.957q.031-2,.063-4-.031,2-.063,4" transform="translate(-106.572 -106.438)" fill="#2d2140" fill-rule="evenodd"/>
        <path id="ink-layer-66" data-name="ink-layer" d="M506,453.653l4-.392-4,.392" transform="translate(-138.364 -95.461)" fill="#2d2140" fill-rule="evenodd"/>
        <path id="ink-layer-67" data-name="ink-layer" d="M597.386,429.957q.12-2,.238-4-.118,2-.238,4" transform="translate(-162.66 -90.19)" fill="#2d2140" fill-rule="evenodd"/>
        <path id="ink-layer-68" data-name="ink-layer" d="M615,245.613l4-.311-4,.311" transform="translate(-168.17 -51.801)" fill="#2d2140" fill-rule="evenodd"/>
        <path id="ink-layer-69" data-name="ink-layer" d="M479,420.472l-3-.029,3,.029" transform="translate(-130.014 -88.527)" fill="#2d2140" fill-rule="evenodd"/>
        <path id="ink-layer-70" data-name="ink-layer" d="M391.578,581.957q-.075-1.5-.147-3,.072,1.5.147,3" transform="translate(-106.57 -136.251)" fill="#2d2140" fill-rule="evenodd"/>
        <path id="ink-layer-71" data-name="ink-layer" d="M503.7,530.957c2.186,5.419.958,1.582,1.014,2.833q-2.793.375-1.014-2.833" transform="translate(-137.234 -112.186)" fill="#2d2140" fill-rule="evenodd"/>
        <path id="ink-layer-72" data-name="ink-layer" d="M412,415.512l-3-.109,3,.109" transform="translate(-111.714 -87.479)" fill="#2d2140" fill-rule="evenodd"/>
        <path id="ink-layer-73" data-name="ink-layer" d="M616.41,313.957q.094-2,.189-4-.094,2-.189,4" transform="translate(-167.831 -65.714)" fill="#2d2140" fill-rule="evenodd"/>
        <path id="ink-layer-74" data-name="ink-layer" d="M391.51,571.957q0-2-.01-4,0,2.006.01,4" transform="translate(-106.573 -135.267)" fill="#2d2140" fill-rule="evenodd"/>
        <path id="ink-layer-75" data-name="ink-layer" d="M391.4,541.957q.1-1.5.209-3-.105,1.5-.209,3" transform="translate(-106.569 -113.872)" fill="#2d2140" fill-rule="evenodd"/>
        <path id="ink-layer-76" data-name="ink-layer" d="M599.365,410.957q.139-1.5.28-3-.14,1.5-.28,3" transform="translate(-163.206 -86.27)" fill="#2d2140" fill-rule="evenodd"/>
        <path id="ink-layer-77" data-name="ink-layer" d="M378.371,544.957c.089,1,.179,2,.268,3q-.135-1.5-.268-3" transform="translate(-103.029 -115.136)" fill="#2d2140" fill-rule="evenodd"/>
        <path id="ink-layer-78" data-name="ink-layer" d="M376.357,536.957c.1,1,.2,2,.3,3q-.149-1.5-.3-3" transform="translate(-102.483 -113.45)" fill="#2d2140" fill-rule="evenodd"/>
        <path id="ink-layer-79" data-name="ink-layer" d="M576.393,399.957q.113-1.5.224-3-.114,1.5-.224,3" transform="translate(-156.941 -83.952)" fill="#2d2140" fill-rule="evenodd"/>
        <path id="ink-layer-80" data-name="ink-layer" d="M66,535.615q2-.157,4-.315l-4,.315" transform="translate(0 -112.671)" fill="#2d2140" fill-rule="evenodd"/>
        <path id="ink-layer-81" data-name="ink-layer" d="M567.562,559.957c-.039,1-.078,2.006-.115,3,.039-1,.077-2,.115-3" transform="translate(-154.487 -118.296)" fill="#2d2140" fill-rule="evenodd"/>
        <path id="ink-layer-82" data-name="ink-layer" d="M583.393,562.957q.111-1.5.223-3-.113,1.5-.223,3" transform="translate(-158.847 -118.296)" fill="#2d2140" fill-rule="evenodd"/>
        <path id="ink-layer-83" data-name="ink-layer" d="M577.347,395.957q.157-1.5.316-3-.157,1.5-.316,3" transform="translate(-157.217 -83.109)" fill="#2d2140" fill-rule="evenodd"/>
        <path id="ink-layer-84" data-name="ink-layer" d="M74,534.654l4-.393-4,.393" transform="translate(0 -112.465)" fill="#2d2140" fill-rule="evenodd"/>
        <path id="ink-layer-85" data-name="ink-layer" d="M498,419.446l-2,.022,2-.022" transform="translate(-135.324 -88.317)" fill="#2d2140" fill-rule="evenodd"/>
        <path id="ink-layer-86" data-name="ink-layer" d="M391.51,532.957q0-1.5-.01-3c0,1,.007,2,.01,3" transform="translate(-106.573 -111.975)" fill="#2d2140" fill-rule="evenodd"/>
        <path id="ink-layer-87" data-name="ink-layer" d="M585.583,530.957a3.079,3.079,0,0,1,.156-3q-.078,1.5-.156,3" transform="translate(-159.402 -111.554)" fill="#2d2140" fill-rule="evenodd"/>
        <path id="ink-layer-88" data-name="ink-layer" d="M568.547,511.957c-.028,1-.058,2-.085,3,.029-1,.057-2,.085-3" transform="translate(-154.758 -108.183)" fill="#2d2140" fill-rule="evenodd"/>
        <path id="ink-layer-89" data-name="ink-layer" d="M569.411,610.957c.062,1,.125,2,.187,3q-.093-1.5-.187-3" transform="translate(-155.034 -148.005)" fill="#2d2140" fill-rule="evenodd"/>
        <path id="ink-layer-90" data-name="ink-layer" d="M643,247.244q1.5.214,3,.427l-3-.427" transform="translate(-175.628 -52.217)" fill="#2d2140" fill-rule="evenodd"/>
        <path id="ink-layer-91" data-name="ink-layer" d="M639,247.337c1.342.081,2.816-.564,4,.381Z" transform="translate(-174.733 -52.214)" fill="#2d2140" fill-rule="evenodd"/>
        <path id="ink-layer-92" data-name="ink-layer" d="M468,458.467l4-.02-4,.02" transform="translate(-127.974 -96.499)" fill="#2d2140" fill-rule="evenodd"/>
        <path id="ink-layer-93" data-name="ink-layer" d="M498,246.284l4,.347-4-.347" transform="translate(-136.177 -52.009)" fill="#2d2140" fill-rule="evenodd"/>
        <path id="ink-layer-94" data-name="ink-layer" d="M432,458.2l4,.018a4.152,4.152,0,0,1-4-.018" transform="translate(-118.129 -96.515)" fill="#2d2140" fill-rule="evenodd"/>
        <path id="ink-layer-95" data-name="ink-layer" d="M395.619,625.957q-.114-1.5-.229-3c.077,1,.153,2,.229,3" transform="translate(-107.658 -148.005)" fill="#2d2140" fill-rule="evenodd"/>
        <path id="ink-layer-96" data-name="ink-layer" d="M541.483,247.957q.023-1.5.044-3-.023,1.5-.044,3" transform="translate(-147.406 -51.925)" fill="#2d2140" fill-rule="evenodd"/>
        <path id="ink-layer-97" data-name="ink-layer" d="M457,458.619l4-.323-4,.323" transform="translate(-124.966 -96.509)" fill="#2d2140" fill-rule="evenodd"/>
        <path id="ink-layer-98" data-name="ink-layer" d="M570.471,634.957q.033,1.5.067,3c-.022-1-.045-2-.067-3" transform="translate(-155.302 -148.005)" fill="#2d2140" fill-rule="evenodd"/>
        <path id="ink-layer-99" data-name="ink-layer" d="M574,222.648l4-.381-4,.381" transform="translate(-156.959 -46.97)" fill="#2d2140" fill-rule="evenodd"/>
        <path id="ink-layer-100" data-name="ink-layer" d="M591.368,477.957q.138-1.5.274-3-.137,1.5-.274,3" transform="translate(-161.028 -100.387)" fill="#2d2140" fill-rule="evenodd"/>
        <path id="ink-layer-101" data-name="ink-layer" d="M637.39,210.957q.116-1.5.229-3-.114,1.5-.229,3" transform="translate(-173.551 -44.129)" fill="#2d2140" fill-rule="evenodd"/>
        <path id="ink-layer-102" data-name="ink-layer" d="M542.476,124.957c.019,1,.037,2,.058,3q-.029-1.5-.058-3" transform="translate(-147.679 -12.397)" fill="#2d2140" fill-rule="evenodd"/>
        <path id="ink-layer-103" data-name="ink-layer" d="M507,106.291l4,.333-4-.333" transform="translate(-138.638 -0.396)" fill="#2d2140" fill-rule="evenodd"/>
        <path id="ink-layer-104" data-name="ink-layer" d="M307,674.653l4-.392-4,.392" transform="translate(-83.949 -148.005)" fill="#2d2140" fill-rule="evenodd"/>
        <path id="ink-layer-105" data-name="ink-layer" d="M509,96.458l-2,0c.672,0,1.336,0,2,0" transform="translate(-138.325 -0.396)" fill="#2d2140" fill-rule="evenodd"/>
        <path id="ink-layer-106" data-name="ink-layer" d="M263,687.677a4.723,4.723,0,0,1,4,.005l-4-.005" transform="translate(-71.917 -148.005)" fill="#2d2140" fill-rule="evenodd"/>
        <path id="ink-layer-107" data-name="ink-layer" d="M782,629.636l7-.358-7,.358" transform="translate(-241.727 -148.005)" fill="#2d2140" fill-rule="evenodd"/>
        <path id="ink-layer-108" data-name="ink-layer" d="M782,612.411l-4,.092,4-.092" transform="translate(-241.727 -148.005)" fill="#2d2140" fill-rule="evenodd"/>
        <path id="ink-layer-109" data-name="ink-layer" d="M762,592.578l5-.381c-1.555.977-3.333.254-5,.381" transform="translate(-241.727 -149.541)" fill="#2d2140" fill-rule="evenodd"/>
        <path id="ink-layer-110" data-name="ink-layer" d="M743,594.638l5-.362-5,.362" transform="translate(-241.246 -149.514)" fill="#2d2140" fill-rule="evenodd"/>
        <path id="ink-layer-111" data-name="ink-layer" d="M715,612.613l4-.312-4,.312" transform="translate(-214.066 -148.005)" fill="#2d2140" fill-rule="evenodd"/>
        <path id="ink-layer-112" data-name="ink-layer" d="M722,612.616l4-.317-4,.317" transform="translate(-215.212 -148.005)" fill="#2d2140" fill-rule="evenodd"/>
        <path id="ink-layer-113" data-name="ink-layer" d="M727,611.634l4-.354-4,.354" transform="translate(-216.03 -148.005)" fill="#2d2140" fill-rule="evenodd"/>
        <path id="ink-layer-114" data-name="ink-layer" d="M734,577.448c-1,.007-2.006.014-3,.018,1.007-.008,2-.013,3-.018" transform="translate(-216.554 -135.878)" fill="#2d2140" fill-rule="evenodd"/>
        <path id="ink-layer-115" data-name="ink-layer" d="M759,632.539l4-.338c-1.244.874-2.65.371-4,.338" transform="translate(-244.255 -148.005)" fill="#2d2140" fill-rule="evenodd"/>
        <path id="ink-layer-116" data-name="ink-layer" d="M721,552.648l4-.382-4,.382" transform="translate(-215.048 -116.243)" fill="#2d2140" fill-rule="evenodd"/>
        <path id="ink-layer-117" data-name="ink-layer" d="M716,536.459l-3,0,3,0" transform="translate(-213.612 -112.863)" fill="#2d2140" fill-rule="evenodd"/>
        <path id="ink-layer-118" data-name="ink-layer" d="M706,538.453c-.669,0-1.339.007-2,.009l2-.009" transform="translate(-192.072 -113.283)" fill="#2d2140" fill-rule="evenodd"/>
        <path id="ink-layer-119" data-name="ink-layer" d="M682,541.239c-.336.822-2.1.717-2-.127l2,.127" transform="translate(-185.524 -113.951)" fill="#2d2140" fill-rule="evenodd"/>
        <path id="ink-layer-120" data-name="ink-layer" d="M635.444,544.957c.041,1,.082,2,.122,3q-.062-1.5-.122-3" transform="translate(-173 -115.136)" fill="#2d2140" fill-rule="evenodd"/>
        <path id="ink-layer-121" data-name="ink-layer" d="M772,550.258l3-.05a2.612,2.612,0,0,1-3,.05" transform="translate(-241.727 -115.83)" fill="#2d2140" fill-rule="evenodd"/>
        <path id="ink-layer-122" data-name="ink-layer" d="M734,535.443c-.669.01-1.339.02-2,.028l2-.028" transform="translate(-216.587 -112.655)" fill="#2d2140" fill-rule="evenodd"/>
        <path id="ink-layer-123" data-name="ink-layer" d="M708,598.644l4-.373-4,.373" transform="translate(-193.6 -148.005)" fill="#2d2140" fill-rule="evenodd"/>
        <path id="ink-layer-124" data-name="ink-layer" d="M692,600.632l4-.349Z" transform="translate(-189.225 -148.005)" fill="#2d2140" fill-rule="evenodd"/>
        <path id="ink-layer-125" data-name="ink-layer" d="M770,630.645l4-.376-4,.376" transform="translate(-241.727 -148.005)" fill="#2d2140" fill-rule="evenodd"/>
        <path id="ink-layer-126" data-name="ink-layer" d="M722,636.666a4.834,4.834,0,0,1,4,.012l-4-.012" transform="translate(-215.212 -148.005)" fill="#2d2140" fill-rule="evenodd"/>
        <path id="ink-layer-127" data-name="ink-layer" d="M719.885,498.825l-1.88-.65,7-.086c.005,0-4.851.757-5.12.736" transform="translate(-214.944 -104.923)" fill="#2d2140" fill-rule="evenodd"/>
        <path id="ink-layer-128" data-name="ink-layer" d="M702,481.459l-5,0c1.673,0,3.337,0,5,0" transform="translate(-190.808 -101.324)" fill="#2d2140" fill-rule="evenodd"/>
        <path id="ink-layer-129" data-name="ink-layer" d="M639,519.684a7.26,7.26,0,0,1,5-.018l-5,.018" transform="translate(-174.93 -109.319)" fill="#2d2140" fill-rule="evenodd"/>
        <path id="ink-layer-130" data-name="ink-layer" d="M740,503.439l-3,.036,3-.036" transform="translate(-241.22 -105.941)" fill="#2d2140" fill-rule="evenodd"/>
        <path id="ink-layer-131" data-name="ink-layer" d="M719,490.294l5,.327q-2.5-.165-5-.327" transform="translate(-214.849 -103.226)" fill="#2d2140" fill-rule="evenodd"/>
        <path id="ink-layer-132" data-name="ink-layer" d="M698,500.634q2.5-.177,5-.354-2.5.179-5,.354" transform="translate(-191.082 -105.326)" fill="#2d2140" fill-rule="evenodd"/>
        <path id="ink-layer-133" data-name="ink-layer" d="M711,498.627l4-.339-4,.339" transform="translate(-213.411 -104.905)" fill="#2d2140" fill-rule="evenodd"/>
        <path id="ink-layer-134" data-name="ink-layer" d="M700,489.293l4,.328-4-.328" transform="translate(-191.413 -103.016)" fill="#2d2140" fill-rule="evenodd"/>
        <path id="ink-layer-135" data-name="ink-layer" d="M681,508.478l-2-.042,2,.042" transform="translate(-185.251 -106.991)" fill="#2d2140" fill-rule="evenodd"/>
        <path id="ink-layer-136" data-name="ink-layer" d="M702,498.52l-2-.125c.672.041,1.336.083,2,.125" transform="translate(-190.981 -104.896)" fill="#2d2140" fill-rule="evenodd"/>
        <path id="ink-layer-137" data-name="ink-layer" d="M689,498.485c-.67-.019-1.34-.038-2-.055l2,.055" transform="translate(-187.434 -104.893)" fill="#2d2140" fill-rule="evenodd"/>
        <path id="ink-layer-138" data-name="ink-layer" d="M725,497.555c0,.259,3.012-1.055,3,.167Z" transform="translate(-215.573 -104.704)" fill="#2d2140" fill-rule="evenodd"/>
        <path id="ink-layer-139" data-name="ink-layer" d="M714,481.456l-2,0,2,0" transform="translate(-213.322 -101.324)" fill="#2d2140" fill-rule="evenodd"/>
        <path id="ink-layer-140" data-name="ink-layer" d="M359,434.034c1.083-4.419.788-7.877,4.645-5.053,2.117,1.55,5.606,9.412,5.341,12.075-.326,3.285-1.824,4.594-4.915,3.549-3.554-1.2-4.965-7.266-5.07-10.571" transform="translate(-98.839 -92.321)" fill="#2d2140" fill-rule="evenodd"/>
        <path id="ink-layer-141" data-name="ink-layer" d="M553.835,407.2c8.956,0,5.048,9.531-2.417,9.744-3.43.1-8.365-.579-7.253-5.171.594-2.45,9.3-5.754,9.67-4.574" transform="translate(-150.63 -86.924)" fill="#2d2140" fill-rule="evenodd"/>
        <path id="ink-layer-142" data-name="ink-layer" d="M457.779,425.957c6.465,3.128-2.631,16.863-8.505,13.463-7.522-4.352,5.847-11.5,8.505-13.463" transform="translate(-123.488 -91.493)" fill="#2d2140" fill-rule="evenodd"/>
        <path id="ink-layer-143" data-name="ink-layer" d="M442.049,438.957c2.116,2.308,11.652,10.133,6.4,13.28-6.464,3.87-11.384-8.9-6.4-13.28" transform="translate(-121.139 -94.275)" fill="#2d2140" fill-rule="evenodd"/>
        <path id="ink-layer-144" data-name="ink-layer" d="M333.683,432.957c-2.1-4.067.791-14.71,7.212-12.765,6.462,1.959-3.657,11.685-7.212,12.765" transform="translate(-91.681 -90.078)" fill="#2d2140" fill-rule="evenodd"/>
        <path id="ink-layer-145" data-name="ink-layer" d="M476.345,435.3c4.192-1.688,3.394,3.307,4.028,4.917.718,1.831,4.409,6.288,3.484,8.236-1.374,2.891-4.659,1.048-6.443-.828-3.127-3.291-2.9-8.568-1.069-12.325" transform="translate(-130.626 -93.554)" fill="#2d2140" fill-rule="evenodd"/>
        <path id="ink-layer-146" data-name="ink-layer" d="M412.445,439.93c-3.495,0-11.837-10.076-6.935-11.766,6.084-2.1,11.171,12.507,6.935,11.766" transform="translate(-111.228 -91.656)" fill="#2d2140" fill-rule="evenodd"/>
        <path id="ink-layer-147" data-name="ink-layer" d="M533.213,423.957c3.2.789,7.436,9.851,2.613,10.9-5.341,1.165-6.294-8.4-2.613-10.9" transform="translate(-145.695 -90.672)" fill="#2d2140" fill-rule="evenodd"/>
        <path id="ink-layer-148" data-name="ink-layer" d="M513.808,440.957c-2.511-4.834-3.129-15.182,3-6.876,1.328,1.8,2.7,1.072,2.016,4.039-.6,2.591-2.975,2.837-5.016,2.837" transform="translate(-140.482 -92.031)" fill="#2d2140" fill-rule="evenodd"/>
        <path id="ink-layer-149" data-name="ink-layer" d="M381.59,415.957c2.558,3.851,1.8,15.926-3.543,8.784-2.273-3.036-.708-8.64,3.543-8.784" transform="translate(-103.324 -88.967)" fill="#2d2140" fill-rule="evenodd"/>
        <path id="ink-layer-150" data-name="ink-layer" d="M510.193,53.055c4.964-1.282,6.154,10.421,3.259,11.711-4.053,1.805-3.545-9.754-3.259-11.711" transform="translate(-139.616 -0.396)" fill="#2d2140" fill-rule="evenodd"/>
        <path id="ink-layer-151" data-name="ink-layer" d="M824.161,647.606c-4.607-.269-11.061-1.526-4.082-4.8,4.427-2.071,11.011-2.216,15.686-1.366,3.222.586,8.058,3.257,3.14,6.72-2.878,2.026-11.244-.46-14.744-.558" transform="translate(-241.727 -148.005)" fill="#2d2140" fill-rule="evenodd"/>
        <path id="ink-layer-152" data-name="ink-layer" d="M819,655.957,815,655.508c1.068-1.939,4.171-2.346,3.993.449" transform="translate(-241.727 -148.005)" fill="#2d2140" fill-rule="evenodd"/>
        <path id="ink-layer-153" data-name="ink-layer" d="M825,647.414l4,.087-4-.087" transform="translate(-241.727 -148.005)" fill="#2d2140" fill-rule="evenodd"/>
      </g>
    </g>
  </g>
</svg>
